# MagicaVoxel @ Ephtracy

# group
o 

# material
mtllib WinterGrass-11.mtl
usemtl palette

# normals
vn 0 0 1
vn 0 0 -1
vn 1 0 0
vn -1 0 0
vn 0 -1 0
vn 0 1 0

# texcoords
vt 0.564453 0.5
vt 0.595703 0.5
vt 0.626953 0.5

# verts
v 0.8 1.4 0.5
v -0.8 1.4 0.5
v 0.8 1.6 0.5
v -0.8 1.6 0.5
v 0.2 0.7 0.4
v -0.8 0.7 0.4
v 0.3 0.8 0.4
v 0.2 0.8 0.4
v 0.4 0.9 0.4
v 0.3 0.9 0.4
v 0.6 1 0.4
v 0.4 1 0.4
v 0.8 1.1 0.4
v 0.6 1.1 0.4
v 0.8 1.4 0.4
v -0.8 1.4 0.4
v -0.2 0 0.3
v -0.8 0 0.3
v -0.1 0.2 0.3
v -0.2 0.2 0.3
v 0 0.4 0.3
v -0.1 0.4 0.3
v 0.1 0.5 0.3
v 0 0.5 0.3
v 0.2 0.6 0.3
v 0.1 0.6 0.3
v -0.8 0.6 0.3
v 0.3 0.7 0.3
v 0.2 0.7 0.3
v -0.8 0.7 0.3
v 0.4 0.8 0.3
v 0.3 0.8 0.3
v 0.2 0.8 0.3
v 0.6 0.9 0.3
v 0.4 0.9 0.3
v 0.3 0.9 0.3
v 0.8 1 0.3
v 0.6 1 0.3
v 0.4 1 0.3
v 0.8 1.1 0.3
v 0.6 1.1 0.3
v -0.2 0 -0.3
v -0.8 0 -0.3
v -0.1 0.2 -0.3
v -0.2 0.2 -0.3
v 0 0.4 -0.3
v -0.1 0.4 -0.3
v 0.1 0.5 -0.3
v 0 0.5 -0.3
v 0.2 0.6 -0.3
v 0.1 0.6 -0.3
v -0.8 0.6 -0.3
v 0.3 0.7 -0.3
v 0.2 0.7 -0.3
v -0.8 0.7 -0.3
v 0.4 0.8 -0.3
v 0.3 0.8 -0.3
v 0.2 0.8 -0.3
v 0.6 0.9 -0.3
v 0.4 0.9 -0.3
v 0.3 0.9 -0.3
v 0.8 1 -0.3
v 0.6 1 -0.3
v 0.4 1 -0.3
v 0.8 1.1 -0.3
v 0.6 1.1 -0.3
v 0.2 0.7 -0.4
v -0.8 0.7 -0.4
v 0.3 0.8 -0.4
v 0.2 0.8 -0.4
v 0.4 0.9 -0.4
v 0.3 0.9 -0.4
v 0.6 1 -0.4
v 0.4 1 -0.4
v 0.8 1.1 -0.4
v 0.6 1.1 -0.4
v 0.8 1.4 -0.4
v -0.8 1.4 -0.4
v 0.8 1.4 -0.5
v -0.8 1.4 -0.5
v 0.8 1.6 -0.5
v -0.8 1.6 -0.5
v 0.8 1.4 0.5
v 0.8 1.6 0.5
v 0.8 1.1 0.4
v 0.8 1.4 0.4
v 0.8 1 0.3
v 0.8 1.1 0.3
v 0.8 1 -0.3
v 0.8 1.1 -0.3
v 0.8 1.1 -0.4
v 0.8 1.4 -0.4
v 0.8 1.4 -0.5
v 0.8 1.6 -0.5
v 0.6 1 0.4
v 0.6 1.1 0.4
v 0.6 0.9 0.3
v 0.6 1 0.3
v 0.6 1.1 0.3
v 0.6 0.9 -0.3
v 0.6 1 -0.3
v 0.6 1.1 -0.3
v 0.6 1 -0.4
v 0.6 1.1 -0.4
v 0.4 0.9 0.4
v 0.4 1 0.4
v 0.4 0.8 0.3
v 0.4 0.9 0.3
v 0.4 1 0.3
v 0.4 0.8 -0.3
v 0.4 0.9 -0.3
v 0.4 1 -0.3
v 0.4 0.9 -0.4
v 0.4 1 -0.4
v 0.3 0.8 0.4
v 0.3 0.9 0.4
v 0.3 0.7 0.3
v 0.3 0.8 0.3
v 0.3 0.9 0.3
v 0.3 0.7 -0.3
v 0.3 0.8 -0.3
v 0.3 0.9 -0.3
v 0.3 0.8 -0.4
v 0.3 0.9 -0.4
v 0.2 0.7 0.4
v 0.2 0.8 0.4
v 0.2 0.6 0.3
v 0.2 0.7 0.3
v 0.2 0.8 0.3
v 0.2 0.6 -0.3
v 0.2 0.7 -0.3
v 0.2 0.8 -0.3
v 0.2 0.7 -0.4
v 0.2 0.8 -0.4
v 0.1 0.5 0.3
v 0.1 0.6 0.3
v 0.1 0.5 -0.3
v 0.1 0.6 -0.3
v 0 0.4 0.3
v 0 0.5 0.3
v 0 0.4 -0.3
v 0 0.5 -0.3
v -0.1 0.2 0.3
v -0.1 0.4 0.3
v -0.1 0.2 -0.3
v -0.1 0.4 -0.3
v -0.2 0 0.3
v -0.2 0.2 0.3
v -0.2 0 -0.3
v -0.2 0.2 -0.3
v -0.8 1.4 0.5
v -0.8 1.6 0.5
v -0.8 0.7 0.4
v -0.8 1.4 0.4
v -0.8 0 0.3
v -0.8 0.6 0.3
v -0.8 0.7 0.3
v -0.8 0 -0.3
v -0.8 0.6 -0.3
v -0.8 0.7 -0.3
v -0.8 0.7 -0.4
v -0.8 1.4 -0.4
v -0.8 1.4 -0.5
v -0.8 1.6 -0.5
v -0.2 0 0.3
v -0.2 0 -0.3
v -0.8 0 0.3
v -0.8 0 -0.3
v -0.1 0.2 0.3
v -0.1 0.2 -0.3
v -0.2 0.2 0.3
v -0.2 0.2 -0.3
v 0 0.4 0.3
v 0 0.4 -0.3
v -0.1 0.4 0.3
v -0.1 0.4 -0.3
v 0.1 0.5 0.3
v 0.1 0.5 -0.3
v 0 0.5 0.3
v 0 0.5 -0.3
v 0.2 0.6 0.3
v 0.2 0.6 -0.3
v 0.1 0.6 0.3
v 0.1 0.6 -0.3
v 0.3 0.7 0.3
v 0.3 0.7 -0.3
v 0.2 0.7 0.4
v 0.2 0.7 0.3
v 0.2 0.7 -0.3
v 0.2 0.7 -0.4
v -0.8 0.7 0.4
v -0.8 0.7 0.3
v -0.8 0.7 -0.3
v -0.8 0.7 -0.4
v 0.4 0.8 0.3
v 0.4 0.8 -0.3
v 0.3 0.8 0.4
v 0.3 0.8 0.3
v 0.3 0.8 -0.3
v 0.3 0.8 -0.4
v 0.2 0.8 0.4
v 0.2 0.8 0.3
v 0.2 0.8 -0.3
v 0.2 0.8 -0.4
v 0.6 0.9 0.3
v 0.6 0.9 -0.3
v 0.4 0.9 0.4
v 0.4 0.9 0.3
v 0.4 0.9 -0.3
v 0.4 0.9 -0.4
v 0.3 0.9 0.4
v 0.3 0.9 0.3
v 0.3 0.9 -0.3
v 0.3 0.9 -0.4
v 0.8 1 0.3
v 0.8 1 -0.3
v 0.6 1 0.4
v 0.6 1 0.3
v 0.6 1 -0.3
v 0.6 1 -0.4
v 0.4 1 0.4
v 0.4 1 0.3
v 0.4 1 -0.3
v 0.4 1 -0.4
v 0.8 1.1 0.4
v 0.8 1.1 0.3
v 0.8 1.1 -0.3
v 0.8 1.1 -0.4
v 0.6 1.1 0.4
v 0.6 1.1 0.3
v 0.6 1.1 -0.3
v 0.6 1.1 -0.4
v 0.8 1.4 0.5
v 0.8 1.4 0.4
v 0.8 1.4 -0.4
v 0.8 1.4 -0.5
v -0.8 1.4 0.5
v -0.8 1.4 0.4
v -0.8 1.4 -0.4
v -0.8 1.4 -0.5
v 0.8 1.6 0.5
v 0.8 1.6 -0.5
v -0.8 1.6 0.5
v -0.8 1.6 -0.5

# faces
f 3/2/1 2/2/1 1/2/1
f 4/2/1 2/2/1 3/2/1
f 8/3/1 6/3/1 5/3/1
f 10/3/1 8/3/1 7/3/1
f 12/3/1 10/3/1 9/3/1
f 14/3/1 12/3/1 11/3/1
f 15/3/1 14/3/1 13/3/1
f 16/3/1 6/3/1 8/3/1
f 16/3/1 14/3/1 15/3/1
f 16/3/1 8/3/1 10/3/1
f 16/3/1 12/3/1 14/3/1
f 16/3/1 10/3/1 12/3/1
f 20/2/1 18/2/1 17/2/1
f 22/2/1 20/2/1 19/2/1
f 24/2/1 22/2/1 21/2/1
f 26/2/1 24/2/1 23/2/1
f 27/2/1 18/2/1 20/2/1
f 27/2/1 20/2/1 22/2/1
f 27/2/1 24/2/1 26/2/1
f 27/2/1 22/2/1 24/2/1
f 29/1/1 26/1/1 25/1/1
f 29/1/1 27/1/1 26/1/1
f 30/1/1 27/1/1 29/1/1
f 32/3/1 29/3/1 28/3/1
f 33/3/1 29/3/1 32/3/1
f 35/3/1 32/3/1 31/3/1
f 36/3/1 32/3/1 35/3/1
f 38/3/1 35/3/1 34/3/1
f 39/3/1 35/3/1 38/3/1
f 40/3/1 38/3/1 37/3/1
f 41/3/1 38/3/1 40/3/1
f 42/2/2 43/2/2 45/2/2
f 44/2/2 45/2/2 47/2/2
f 46/2/2 47/2/2 49/2/2
f 48/2/2 49/2/2 51/2/2
f 45/2/2 43/2/2 52/2/2
f 47/2/2 45/2/2 52/2/2
f 51/2/2 49/2/2 52/2/2
f 49/2/2 47/2/2 52/2/2
f 50/1/2 51/1/2 54/1/2
f 51/1/2 52/1/2 54/1/2
f 54/1/2 52/1/2 55/1/2
f 53/3/2 54/3/2 57/3/2
f 57/3/2 54/3/2 58/3/2
f 56/3/2 57/3/2 60/3/2
f 60/3/2 57/3/2 61/3/2
f 59/3/2 60/3/2 63/3/2
f 63/3/2 60/3/2 64/3/2
f 62/3/2 63/3/2 65/3/2
f 65/3/2 63/3/2 66/3/2
f 67/3/2 68/3/2 70/3/2
f 69/3/2 70/3/2 72/3/2
f 71/3/2 72/3/2 74/3/2
f 73/3/2 74/3/2 76/3/2
f 75/3/2 76/3/2 77/3/2
f 70/3/2 68/3/2 78/3/2
f 77/3/2 76/3/2 78/3/2
f 72/3/2 70/3/2 78/3/2
f 76/3/2 74/3/2 78/3/2
f 74/3/2 72/3/2 78/3/2
f 79/2/2 80/2/2 81/2/2
f 81/2/2 80/2/2 82/2/2
f 86/2/3 84/2/3 83/2/3
f 88/3/3 86/3/3 85/3/3
f 89/3/3 88/3/3 87/3/3
f 90/3/3 86/3/3 88/3/3
f 90/3/3 88/3/3 89/3/3
f 91/3/3 86/3/3 90/3/3
f 92/2/3 84/2/3 86/2/3
f 92/3/3 86/3/3 91/3/3
f 93/2/3 84/2/3 92/2/3
f 94/2/3 84/2/3 93/2/3
f 98/3/3 96/3/3 95/3/3
f 99/3/3 96/3/3 98/3/3
f 100/3/3 98/3/3 97/3/3
f 101/3/3 98/3/3 100/3/3
f 103/3/3 102/3/3 101/3/3
f 104/3/3 102/3/3 103/3/3
f 108/3/3 106/3/3 105/3/3
f 109/3/3 106/3/3 108/3/3
f 110/3/3 108/3/3 107/3/3
f 111/3/3 108/3/3 110/3/3
f 113/3/3 112/3/3 111/3/3
f 114/3/3 112/3/3 113/3/3
f 118/3/3 116/3/3 115/3/3
f 119/3/3 116/3/3 118/3/3
f 120/3/3 118/3/3 117/3/3
f 121/3/3 118/3/3 120/3/3
f 123/3/3 122/3/3 121/3/3
f 124/3/3 122/3/3 123/3/3
f 128/3/3 126/3/3 125/3/3
f 129/3/3 126/3/3 128/3/3
f 130/1/3 128/1/3 127/1/3
f 131/1/3 128/1/3 130/1/3
f 133/3/3 132/3/3 131/3/3
f 134/3/3 132/3/3 133/3/3
f 137/2/3 136/2/3 135/2/3
f 138/2/3 136/2/3 137/2/3
f 141/2/3 140/2/3 139/2/3
f 142/2/3 140/2/3 141/2/3
f 145/2/3 144/2/3 143/2/3
f 146/2/3 144/2/3 145/2/3
f 149/2/3 148/2/3 147/2/3
f 150/2/3 148/2/3 149/2/3
f 151/2/4 152/2/4 154/2/4
f 153/3/4 154/3/4 157/3/4
f 155/2/4 156/2/4 158/2/4
f 156/1/4 157/1/4 159/1/4
f 158/2/4 156/2/4 159/2/4
f 157/3/4 154/3/4 160/3/4
f 159/1/4 157/1/4 160/1/4
f 160/3/4 154/3/4 161/3/4
f 154/2/4 152/2/4 162/2/4
f 161/3/4 154/3/4 162/3/4
f 162/2/4 152/2/4 163/2/4
f 163/2/4 152/2/4 164/2/4
f 167/2/5 166/2/5 165/2/5
f 168/2/5 166/2/5 167/2/5
f 171/2/5 170/2/5 169/2/5
f 172/2/5 170/2/5 171/2/5
f 175/2/5 174/2/5 173/2/5
f 176/2/5 174/2/5 175/2/5
f 179/2/5 178/2/5 177/2/5
f 180/2/5 178/2/5 179/2/5
f 183/1/5 182/1/5 181/1/5
f 184/1/5 182/1/5 183/1/5
f 188/3/5 186/3/5 185/3/5
f 189/3/5 186/3/5 188/3/5
f 191/3/5 188/3/5 187/3/5
f 192/3/5 188/3/5 191/3/5
f 193/3/5 190/3/5 189/3/5
f 194/3/5 190/3/5 193/3/5
f 198/3/5 196/3/5 195/3/5
f 199/3/5 196/3/5 198/3/5
f 201/3/5 198/3/5 197/3/5
f 202/3/5 198/3/5 201/3/5
f 203/3/5 200/3/5 199/3/5
f 204/3/5 200/3/5 203/3/5
f 208/3/5 206/3/5 205/3/5
f 209/3/5 206/3/5 208/3/5
f 211/3/5 208/3/5 207/3/5
f 212/3/5 208/3/5 211/3/5
f 213/3/5 210/3/5 209/3/5
f 214/3/5 210/3/5 213/3/5
f 218/3/5 216/3/5 215/3/5
f 219/3/5 216/3/5 218/3/5
f 221/3/5 218/3/5 217/3/5
f 222/3/5 218/3/5 221/3/5
f 223/3/5 220/3/5 219/3/5
f 224/3/5 220/3/5 223/3/5
f 229/3/5 226/3/5 225/3/5
f 230/3/5 226/3/5 229/3/5
f 231/3/5 228/3/5 227/3/5
f 232/3/5 228/3/5 231/3/5
f 237/2/5 234/2/5 233/2/5
f 238/2/5 234/2/5 237/2/5
f 239/2/5 236/2/5 235/2/5
f 240/2/5 236/2/5 239/2/5
f 241/2/6 242/2/6 243/2/6
f 243/2/6 242/2/6 244/2/6
