# MagicaVoxel @ Ephtracy

# group
o 

# material
mtllib WinterGrass-10.mtl
usemtl palette

# normals
vn 0 0 -1
vn 0 0 1
vn 1 0 0
vn -1 0 0
vn 0 1 0
vn 0 -1 0

# texcoords
vt 0.595703 0.5
vt 0.626953 0.5
vt 0.658203 0.5

# verts
v -0.3 1 -0.5
v -0.8 1 -0.5
v -0.1 0.9 -0.5
v -0.3 0.9 -0.5
v 0.3 0.8 -0.5
v -0.1 0.8 -0.5
v 0.4 0.7 -0.5
v 0.3 0.7 -0.5
v 0.6 0.6 -0.5
v 0.4 0.6 -0.5
v 0.8 0.5 -0.5
v 0.6 0.5 -0.5
v 0.8 0 -0.5
v -0.8 0 -0.5
v -0.4 1.5 -0.4
v -0.8 1.5 -0.4
v -0.3 1.3 -0.4
v -0.4 1.3 -0.4
v -0.2 1.2 -0.4
v -0.3 1.2 -0.4
v 0 1.1 -0.4
v -0.2 1.1 -0.4
v 0.1 1 -0.4
v 0 1 -0.4
v -0.3 1 -0.4
v -0.8 1 -0.4
v 0.2 0.9 -0.4
v 0.1 0.9 -0.4
v -0.1 0.9 -0.4
v -0.3 0.9 -0.4
v 0.4 0.8 -0.4
v 0.3 0.8 -0.4
v 0.2 0.8 -0.4
v -0.1 0.8 -0.4
v 0.6 0.7 -0.4
v 0.4 0.7 -0.4
v 0.3 0.7 -0.4
v 0.8 0.6 -0.4
v 0.6 0.6 -0.4
v 0.4 0.6 -0.4
v 0.8 0.5 -0.4
v 0.6 0.5 -0.4
v -0.2 1.6 -0.3
v -0.8 1.6 -0.3
v -0.4 1.5 -0.3
v -0.8 1.5 -0.3
v -0.1 1.4 -0.3
v -0.2 1.4 -0.3
v -0.4 1.4 -0.3
v -0.3 1.3 -0.3
v -0.4 1.3 -0.3
v 0 1.2 -0.3
v -0.1 1.2 -0.3
v -0.2 1.2 -0.3
v -0.3 1.2 -0.3
v 0.1 1.1 -0.3
v 0 1.1 -0.3
v -0.2 1.1 -0.3
v 0.2 1 -0.3
v 0.1 1 -0.3
v 0 1 -0.3
v 0.3 0.9 -0.3
v 0.2 0.9 -0.3
v 0.1 0.9 -0.3
v 0.3 0.8 -0.3
v 0.2 0.8 -0.3
v -0.2 1.6 0.3
v -0.8 1.6 0.3
v -0.4 1.5 0.3
v -0.8 1.5 0.3
v -0.1 1.4 0.3
v -0.2 1.4 0.3
v -0.4 1.4 0.3
v 0 1.2 0.3
v -0.1 1.2 0.3
v -0.2 1.2 0.3
v 0.1 1.1 0.3
v 0 1.1 0.3
v -0.1 1.1 0.3
v 0.2 1 0.3
v 0.1 1 0.3
v 0 1 0.3
v 0.2 0.9 0.3
v 0.1 0.9 0.3
v -0.4 1.5 0.4
v -0.8 1.5 0.4
v -0.2 1.4 0.4
v -0.4 1.4 0.4
v -0.1 1.2 0.4
v -0.2 1.2 0.4
v 0 1.1 0.4
v -0.1 1.1 0.4
v 0.1 1 0.4
v 0 1 0.4
v -0.2 1 0.4
v -0.8 1 0.4
v 0.3 0.9 0.4
v 0.1 0.9 0.4
v -0.2 0.9 0.4
v 0.4 0.8 0.4
v 0.3 0.8 0.4
v 0.1 0.8 0.4
v 0.6 0.7 0.4
v 0.4 0.7 0.4
v 0.3 0.7 0.4
v 0.8 0.6 0.4
v 0.6 0.6 0.4
v 0.4 0.6 0.4
v 0.8 0.5 0.4
v 0.6 0.5 0.4
v -0.2 1 0.5
v -0.8 1 0.5
v 0.1 0.9 0.5
v -0.2 0.9 0.5
v 0.3 0.8 0.5
v 0.1 0.8 0.5
v 0.4 0.7 0.5
v 0.3 0.7 0.5
v 0.6 0.6 0.5
v 0.4 0.6 0.5
v 0.8 0.5 0.5
v 0.6 0.5 0.5
v 0.8 0 0.5
v -0.8 0 0.5
v 0.8 0.5 -0.5
v 0.8 0 -0.5
v 0.8 0.6 -0.4
v 0.8 0.5 -0.4
v 0.8 0.6 0.4
v 0.8 0.5 0.4
v 0.8 0.5 0.5
v 0.8 0 0.5
v 0.6 0.6 -0.5
v 0.6 0.5 -0.5
v 0.6 0.7 -0.4
v 0.6 0.6 -0.4
v 0.6 0.5 -0.4
v 0.6 0.7 0.4
v 0.6 0.6 0.4
v 0.6 0.5 0.4
v 0.6 0.6 0.5
v 0.6 0.5 0.5
v 0.4 0.7 -0.5
v 0.4 0.6 -0.5
v 0.4 0.8 -0.4
v 0.4 0.7 -0.4
v 0.4 0.6 -0.4
v 0.4 0.8 0.4
v 0.4 0.7 0.4
v 0.4 0.6 0.4
v 0.4 0.7 0.5
v 0.4 0.6 0.5
v 0.3 0.8 -0.5
v 0.3 0.7 -0.5
v 0.3 0.8 -0.4
v 0.3 0.7 -0.4
v 0.3 0.9 -0.3
v 0.3 0.8 -0.3
v 0.3 0.9 0.3
v 0.3 0.8 0.3
v 0.3 0.9 0.4
v 0.3 0.8 0.4
v 0.3 0.7 0.4
v 0.3 0.8 0.5
v 0.3 0.7 0.5
v 0.2 0.9 -0.4
v 0.2 0.8 -0.4
v 0.2 1 -0.3
v 0.2 0.9 -0.3
v 0.2 0.8 -0.3
v 0.2 1 0.3
v 0.2 0.9 0.3
v 0.1 1 -0.4
v 0.1 0.9 -0.4
v 0.1 1.1 -0.3
v 0.1 1 -0.3
v 0.1 0.9 -0.3
v 0.1 1.1 0.3
v 0.1 1 0.3
v 0.1 0.9 0.3
v 0.1 1 0.4
v 0.1 0.9 0.4
v 0.1 0.8 0.4
v 0.1 0.9 0.5
v 0.1 0.8 0.5
v 0 1.1 -0.4
v 0 1 -0.4
v 0 1.2 -0.3
v 0 1.1 -0.3
v 0 1 -0.3
v 0 1.2 0.3
v 0 1.1 0.3
v 0 1 0.3
v 0 1.1 0.4
v 0 1 0.4
v -0.1 0.9 -0.5
v -0.1 0.8 -0.5
v -0.1 0.9 -0.4
v -0.1 0.8 -0.4
v -0.1 1.4 -0.3
v -0.1 1.2 -0.3
v -0.1 1.4 0.3
v -0.1 1.2 0.3
v -0.1 1.1 0.3
v -0.1 1.2 0.4
v -0.1 1.1 0.4
v -0.2 1.2 -0.4
v -0.2 1.1 -0.4
v -0.2 1.6 -0.3
v -0.2 1.4 -0.3
v -0.2 1.2 -0.3
v -0.2 1.1 -0.3
v -0.2 1.6 0.3
v -0.2 1.4 0.3
v -0.2 1.2 0.3
v -0.2 1.4 0.4
v -0.2 1.2 0.4
v -0.2 1 0.4
v -0.2 0.9 0.4
v -0.2 1 0.5
v -0.2 0.9 0.5
v -0.3 1 -0.5
v -0.3 0.9 -0.5
v -0.3 1.3 -0.4
v -0.3 1.2 -0.4
v -0.3 1 -0.4
v -0.3 0.9 -0.4
v -0.3 1.3 -0.3
v -0.3 1.2 -0.3
v -0.4 1.5 -0.4
v -0.4 1.3 -0.4
v -0.4 1.5 -0.3
v -0.4 1.4 -0.3
v -0.4 1.3 -0.3
v -0.4 1.5 0.3
v -0.4 1.4 0.3
v -0.4 1.5 0.4
v -0.4 1.4 0.4
v -0.8 1 -0.5
v -0.8 0 -0.5
v -0.8 1.5 -0.4
v -0.8 1 -0.4
v -0.8 1.6 -0.3
v -0.8 1.5 -0.3
v -0.8 1.6 0.3
v -0.8 1.5 0.3
v -0.8 1.5 0.4
v -0.8 1 0.4
v -0.8 1 0.5
v -0.8 0 0.5
v -0.2 1.6 -0.3
v -0.2 1.6 0.3
v -0.8 1.6 -0.3
v -0.8 1.6 0.3
v -0.4 1.5 -0.4
v -0.4 1.5 -0.3
v -0.4 1.5 0.3
v -0.4 1.5 0.4
v -0.8 1.5 -0.4
v -0.8 1.5 -0.3
v -0.8 1.5 0.3
v -0.8 1.5 0.4
v -0.1 1.4 -0.3
v -0.1 1.4 0.3
v -0.2 1.4 -0.3
v -0.2 1.4 0.3
v -0.2 1.4 0.4
v -0.4 1.4 0.3
v -0.4 1.4 0.4
v -0.3 1.3 -0.4
v -0.3 1.3 -0.3
v -0.4 1.3 -0.4
v -0.4 1.3 -0.3
v 0 1.2 -0.3
v 0 1.2 0.3
v -0.1 1.2 -0.3
v -0.1 1.2 0.3
v -0.1 1.2 0.4
v -0.2 1.2 -0.4
v -0.2 1.2 -0.3
v -0.2 1.2 0.3
v -0.2 1.2 0.4
v -0.3 1.2 -0.4
v -0.3 1.2 -0.3
v 0.1 1.1 -0.3
v 0.1 1.1 0.3
v 0 1.1 -0.4
v 0 1.1 -0.3
v 0 1.1 0.3
v 0 1.1 0.4
v -0.1 1.1 0.3
v -0.1 1.1 0.4
v -0.2 1.1 -0.4
v -0.2 1.1 -0.3
v 0.2 1 -0.3
v 0.2 1 0.3
v 0.1 1 -0.4
v 0.1 1 -0.3
v 0.1 1 0.3
v 0.1 1 0.4
v 0 1 -0.4
v 0 1 -0.3
v 0 1 0.3
v 0 1 0.4
v -0.2 1 0.4
v -0.2 1 0.5
v -0.3 1 -0.5
v -0.3 1 -0.4
v -0.8 1 -0.5
v -0.8 1 -0.4
v -0.8 1 0.4
v -0.8 1 0.5
v 0.3 0.9 -0.3
v 0.3 0.9 0.3
v 0.3 0.9 0.4
v 0.2 0.9 -0.4
v 0.2 0.9 -0.3
v 0.2 0.9 0.3
v 0.1 0.9 -0.4
v 0.1 0.9 -0.3
v 0.1 0.9 0.3
v 0.1 0.9 0.4
v 0.1 0.9 0.5
v -0.1 0.9 -0.5
v -0.1 0.9 -0.4
v -0.2 0.9 0.4
v -0.2 0.9 0.5
v -0.3 0.9 -0.5
v -0.3 0.9 -0.4
v 0.4 0.8 -0.4
v 0.4 0.8 0.4
v 0.3 0.8 -0.5
v 0.3 0.8 -0.4
v 0.3 0.8 -0.3
v 0.3 0.8 0.3
v 0.3 0.8 0.4
v 0.3 0.8 0.5
v 0.2 0.8 -0.4
v 0.2 0.8 -0.3
v 0.1 0.8 0.4
v 0.1 0.8 0.5
v -0.1 0.8 -0.5
v -0.1 0.8 -0.4
v 0.6 0.7 -0.4
v 0.6 0.7 0.4
v 0.4 0.7 -0.5
v 0.4 0.7 -0.4
v 0.4 0.7 0.4
v 0.4 0.7 0.5
v 0.3 0.7 -0.5
v 0.3 0.7 -0.4
v 0.3 0.7 0.4
v 0.3 0.7 0.5
v 0.8 0.6 -0.4
v 0.8 0.6 0.4
v 0.6 0.6 -0.5
v 0.6 0.6 -0.4
v 0.6 0.6 0.4
v 0.6 0.6 0.5
v 0.4 0.6 -0.5
v 0.4 0.6 -0.4
v 0.4 0.6 0.4
v 0.4 0.6 0.5
v 0.8 0.5 -0.5
v 0.8 0.5 -0.4
v 0.8 0.5 0.4
v 0.8 0.5 0.5
v 0.6 0.5 -0.5
v 0.6 0.5 -0.4
v 0.6 0.5 0.4
v 0.6 0.5 0.5
v 0.8 0 -0.5
v 0.8 0 0.5
v -0.8 0 -0.5
v -0.8 0 0.5

# faces
f 4/3/1 2/3/1 1/3/1
f 6/3/1 4/3/1 3/3/1
f 8/3/1 6/3/1 5/3/1
f 10/3/1 8/3/1 7/3/1
f 12/3/1 10/3/1 9/3/1
f 13/3/1 12/3/1 11/3/1
f 14/3/1 2/3/1 4/3/1
f 14/3/1 12/3/1 13/3/1
f 14/3/1 4/3/1 6/3/1
f 14/3/1 10/3/1 12/3/1
f 14/3/1 6/3/1 8/3/1
f 14/3/1 8/3/1 10/3/1
f 18/2/1 16/2/1 15/2/1
f 20/2/1 18/2/1 17/2/1
f 22/2/1 20/2/1 19/2/1
f 24/2/1 22/2/1 21/2/1
f 25/2/1 18/2/1 20/2/1
f 25/2/1 20/2/1 22/2/1
f 25/2/1 22/2/1 24/2/1
f 26/2/1 16/2/1 18/2/1
f 26/2/1 18/2/1 25/2/1
f 28/2/1 25/2/1 24/2/1
f 28/2/1 24/2/1 23/2/1
f 29/2/1 25/2/1 28/2/1
f 30/2/1 25/2/1 29/2/1
f 33/2/1 28/2/1 27/2/1
f 33/2/1 29/2/1 28/2/1
f 34/2/1 29/2/1 33/2/1
f 36/3/1 32/3/1 31/3/1
f 37/3/1 32/3/1 36/3/1
f 39/3/1 36/3/1 35/3/1
f 40/3/1 36/3/1 39/3/1
f 41/3/1 39/3/1 38/3/1
f 42/3/1 39/3/1 41/3/1
f 45/1/1 44/1/1 43/1/1
f 46/1/1 44/1/1 45/1/1
f 48/1/1 45/1/1 43/1/1
f 49/1/1 45/1/1 48/1/1
f 50/2/1 48/2/1 47/2/1
f 50/2/1 49/2/1 48/2/1
f 51/2/1 49/2/1 50/2/1
f 53/2/1 50/2/1 47/2/1
f 54/2/1 50/2/1 53/2/1
f 55/2/1 50/2/1 54/2/1
f 57/2/1 53/2/1 52/2/1
f 57/2/1 54/2/1 53/2/1
f 58/2/1 54/2/1 57/2/1
f 60/2/1 57/2/1 56/2/1
f 61/2/1 57/2/1 60/2/1
f 63/2/1 60/2/1 59/2/1
f 64/2/1 60/2/1 63/2/1
f 65/2/1 63/2/1 62/2/1
f 66/2/1 63/2/1 65/2/1
f 67/1/2 68/1/2 69/1/2
f 69/1/2 68/1/2 70/1/2
f 67/1/2 69/1/2 72/1/2
f 72/1/2 69/1/2 73/1/2
f 71/2/2 72/2/2 75/2/2
f 75/2/2 72/2/2 76/2/2
f 74/2/2 75/2/2 78/2/2
f 78/2/2 75/2/2 79/2/2
f 77/2/2 78/2/2 81/2/2
f 81/2/2 78/2/2 82/2/2
f 80/2/2 81/2/2 83/2/2
f 83/2/2 81/2/2 84/2/2
f 85/2/2 86/2/2 88/2/2
f 87/2/2 88/2/2 90/2/2
f 89/2/2 90/2/2 92/2/2
f 91/2/2 92/2/2 94/2/2
f 90/2/2 88/2/2 95/2/2
f 92/2/2 90/2/2 95/2/2
f 94/2/2 92/2/2 95/2/2
f 88/2/2 86/2/2 96/2/2
f 95/2/2 88/2/2 96/2/2
f 94/2/2 95/2/2 98/2/2
f 93/2/2 94/2/2 98/2/2
f 98/2/2 95/2/2 99/2/2
f 97/3/2 98/3/2 101/3/2
f 101/3/2 98/3/2 102/3/2
f 100/3/2 101/3/2 104/3/2
f 104/3/2 101/3/2 105/3/2
f 103/3/2 104/3/2 107/3/2
f 107/3/2 104/3/2 108/3/2
f 106/3/2 107/3/2 109/3/2
f 109/3/2 107/3/2 110/3/2
f 111/3/2 112/3/2 114/3/2
f 113/3/2 114/3/2 116/3/2
f 115/3/2 116/3/2 118/3/2
f 117/3/2 118/3/2 120/3/2
f 119/3/2 120/3/2 122/3/2
f 121/3/2 122/3/2 123/3/2
f 114/3/2 112/3/2 124/3/2
f 123/3/2 122/3/2 124/3/2
f 116/3/2 114/3/2 124/3/2
f 122/3/2 120/3/2 124/3/2
f 118/3/2 116/3/2 124/3/2
f 120/3/2 118/3/2 124/3/2
f 128/3/3 126/3/3 125/3/3
f 129/3/3 128/3/3 127/3/3
f 130/3/3 126/3/3 128/3/3
f 130/3/3 128/3/3 129/3/3
f 131/3/3 126/3/3 130/3/3
f 132/3/3 126/3/3 131/3/3
f 136/3/3 134/3/3 133/3/3
f 137/3/3 134/3/3 136/3/3
f 138/3/3 136/3/3 135/3/3
f 139/3/3 136/3/3 138/3/3
f 141/3/3 140/3/3 139/3/3
f 142/3/3 140/3/3 141/3/3
f 146/3/3 144/3/3 143/3/3
f 147/3/3 144/3/3 146/3/3
f 148/3/3 146/3/3 145/3/3
f 149/3/3 146/3/3 148/3/3
f 151/3/3 150/3/3 149/3/3
f 152/3/3 150/3/3 151/3/3
f 155/3/3 154/3/3 153/3/3
f 156/3/3 154/3/3 155/3/3
f 159/2/3 158/2/3 157/2/3
f 160/2/3 158/2/3 159/2/3
f 161/3/3 160/3/3 159/3/3
f 162/3/3 160/3/3 161/3/3
f 164/3/3 163/3/3 162/3/3
f 165/3/3 163/3/3 164/3/3
f 169/2/3 167/2/3 166/2/3
f 170/2/3 167/2/3 169/2/3
f 171/2/3 169/2/3 168/2/3
f 172/2/3 169/2/3 171/2/3
f 176/2/3 174/2/3 173/2/3
f 177/2/3 174/2/3 176/2/3
f 178/2/3 176/2/3 175/2/3
f 179/2/3 176/2/3 178/2/3
f 181/2/3 180/2/3 179/2/3
f 182/2/3 180/2/3 181/2/3
f 184/3/3 183/3/3 182/3/3
f 185/3/3 183/3/3 184/3/3
f 189/2/3 187/2/3 186/2/3
f 190/2/3 187/2/3 189/2/3
f 191/2/3 189/2/3 188/2/3
f 192/2/3 189/2/3 191/2/3
f 194/2/3 193/2/3 192/2/3
f 195/2/3 193/2/3 194/2/3
f 198/3/3 197/3/3 196/3/3
f 199/3/3 197/3/3 198/3/3
f 202/2/3 201/2/3 200/2/3
f 203/2/3 201/2/3 202/2/3
f 205/2/3 204/2/3 203/2/3
f 206/2/3 204/2/3 205/2/3
f 211/2/3 208/2/3 207/2/3
f 212/2/3 208/2/3 211/2/3
f 213/1/3 210/1/3 209/1/3
f 214/1/3 210/1/3 213/1/3
f 216/2/3 215/2/3 214/2/3
f 217/2/3 215/2/3 216/2/3
f 220/3/3 219/3/3 218/3/3
f 221/3/3 219/3/3 220/3/3
f 226/3/3 223/3/3 222/3/3
f 227/3/3 223/3/3 226/3/3
f 228/2/3 225/2/3 224/2/3
f 229/2/3 225/2/3 228/2/3
f 232/2/3 231/2/3 230/2/3
f 233/2/3 231/2/3 232/2/3
f 234/2/3 231/2/3 233/2/3
f 237/2/3 236/2/3 235/2/3
f 238/2/3 236/2/3 237/2/3
f 239/3/4 240/3/4 242/3/4
f 241/2/4 242/2/4 244/2/4
f 243/1/4 244/1/4 245/1/4
f 244/2/4 242/2/4 246/2/4
f 245/1/4 244/1/4 246/1/4
f 246/2/4 242/2/4 247/2/4
f 242/3/4 240/3/4 248/3/4
f 247/2/4 242/2/4 248/2/4
f 248/3/4 240/3/4 249/3/4
f 249/3/4 240/3/4 250/3/4
f 253/1/5 252/1/5 251/1/5
f 254/1/5 252/1/5 253/1/5
f 259/2/5 256/2/5 255/2/5
f 260/2/5 256/2/5 259/2/5
f 261/2/5 258/2/5 257/2/5
f 262/2/5 258/2/5 261/2/5
f 265/2/5 264/2/5 263/2/5
f 266/2/5 264/2/5 265/2/5
f 268/2/5 267/2/5 266/2/5
f 269/2/5 267/2/5 268/2/5
f 272/2/5 271/2/5 270/2/5
f 273/2/5 271/2/5 272/2/5
f 276/2/5 275/2/5 274/2/5
f 277/2/5 275/2/5 276/2/5
f 281/2/5 278/2/5 277/2/5
f 282/2/5 278/2/5 281/2/5
f 283/2/5 280/2/5 279/2/5
f 284/2/5 280/2/5 283/2/5
f 288/2/5 286/2/5 285/2/5
f 289/2/5 286/2/5 288/2/5
f 291/2/5 290/2/5 289/2/5
f 292/2/5 290/2/5 291/2/5
f 293/2/5 288/2/5 287/2/5
f 294/2/5 288/2/5 293/2/5
f 298/2/5 296/2/5 295/2/5
f 299/2/5 296/2/5 298/2/5
f 301/2/5 298/2/5 297/2/5
f 302/2/5 298/2/5 301/2/5
f 303/2/5 300/2/5 299/2/5
f 304/2/5 300/2/5 303/2/5
f 309/3/5 308/3/5 307/3/5
f 310/3/5 308/3/5 309/3/5
f 311/3/5 306/3/5 305/3/5
f 312/3/5 306/3/5 311/3/5
f 317/2/5 314/2/5 313/2/5
f 318/3/5 315/3/5 314/3/5
f 318/2/5 314/2/5 317/2/5
f 319/2/5 317/2/5 316/2/5
f 320/2/5 317/2/5 319/2/5
f 321/3/5 315/3/5 318/3/5
f 322/3/5 315/3/5 321/3/5
f 326/3/5 323/3/5 322/3/5
f 327/3/5 323/3/5 326/3/5
f 328/3/5 325/3/5 324/3/5
f 329/3/5 325/3/5 328/3/5
f 333/3/5 331/3/5 330/3/5
f 334/3/5 331/3/5 333/3/5
f 335/3/5 331/3/5 334/3/5
f 336/3/5 331/3/5 335/3/5
f 338/3/5 333/3/5 332/3/5
f 338/3/5 334/3/5 333/3/5
f 339/3/5 334/3/5 338/3/5
f 340/3/5 337/3/5 336/3/5
f 341/3/5 337/3/5 340/3/5
f 342/3/5 338/3/5 332/3/5
f 343/3/5 338/3/5 342/3/5
f 347/3/5 345/3/5 344/3/5
f 348/3/5 345/3/5 347/3/5
f 350/3/5 347/3/5 346/3/5
f 351/3/5 347/3/5 350/3/5
f 352/3/5 349/3/5 348/3/5
f 353/3/5 349/3/5 352/3/5
f 357/3/5 355/3/5 354/3/5
f 358/3/5 355/3/5 357/3/5
f 360/3/5 357/3/5 356/3/5
f 361/3/5 357/3/5 360/3/5
f 362/3/5 359/3/5 358/3/5
f 363/3/5 359/3/5 362/3/5
f 368/3/5 365/3/5 364/3/5
f 369/3/5 365/3/5 368/3/5
f 370/3/5 367/3/5 366/3/5
f 371/3/5 367/3/5 370/3/5
f 372/3/6 373/3/6 374/3/6
f 374/3/6 373/3/6 375/3/6
