# MagicaVoxel @ Ephtracy

# group
o 

# material
mtllib WinterGrass-19.mtl
usemtl palette

# normals
vn 0 0 1
vn 0 0 -1
vn 1 0 0
vn -1 0 0
vn 0 -1 0
vn 0 1 0

# texcoords
vt 0.564453 0.5
vt 0.595703 0.5
vt 0.626953 0.5

# verts
v 0.4 0 0.8
v -0.8 0 0.8
v 0.4 0.5 0.8
v -0.8 0.5 0.8
v 0.5 0.6 0.8
v 0.4 0.6 0.8
v -0.8 0.6 0.8
v 0.5 1.3 0.8
v 0.4 1.3 0.8
v -0.8 1.3 0.8
v 0.4 1.6 0.8
v -0.8 1.6 0.8
v 0.5 0.5 0.5
v 0.4 0.5 0.5
v 0.5 0.6 0.5
v 0.4 0.6 0.5
v 0.5 1.2 -0.6
v 0.4 1.2 -0.6
v 0.5 1.3 -0.6
v 0.4 1.3 -0.6
v 0.5 1.2 0.6
v 0.4 1.2 0.6
v 0.5 1.3 0.6
v 0.4 1.3 0.6
v 0.5 0.5 -0.5
v 0.4 0.5 -0.5
v 0.5 0.6 -0.5
v 0.4 0.6 -0.5
v 0.4 0 -0.8
v -0.8 0 -0.8
v 0.4 0.5 -0.8
v -0.8 0.5 -0.8
v 0.5 0.6 -0.8
v 0.4 0.6 -0.8
v -0.8 0.6 -0.8
v 0.5 1.3 -0.8
v 0.4 1.3 -0.8
v -0.8 1.3 -0.8
v 0.4 1.6 -0.8
v -0.8 1.6 -0.8
v 0.5 0.6 0.8
v 0.5 1.3 0.8
v 0.5 1.2 0.6
v 0.5 1.3 0.6
v 0.5 0.5 0.5
v 0.5 0.6 0.5
v 0.5 0.5 -0.5
v 0.5 0.6 -0.5
v 0.5 1.2 -0.6
v 0.5 1.3 -0.6
v 0.5 0.6 -0.8
v 0.5 1.3 -0.8
v 0.4 0 0.8
v 0.4 0.5 0.8
v 0.4 0.6 0.8
v 0.4 1.3 0.8
v 0.4 1.6 0.8
v 0.4 1.2 0.6
v 0.4 1.3 0.6
v 0.4 0.4 0.5
v 0.4 0.5 0.5
v 0.4 0.6 0.5
v 0.4 0.4 -0.5
v 0.4 0.5 -0.5
v 0.4 0.6 -0.5
v 0.4 1.2 -0.6
v 0.4 1.3 -0.6
v 0.4 0 -0.8
v 0.4 0.5 -0.8
v 0.4 0.6 -0.8
v 0.4 1.3 -0.8
v 0.4 1.6 -0.8
v -0.8 0 0.8
v -0.8 0.5 0.8
v -0.8 0.6 0.8
v -0.8 1.3 0.8
v -0.8 1.6 0.8
v -0.8 0 -0.8
v -0.8 0.5 -0.8
v -0.8 0.6 -0.8
v -0.8 1.3 -0.8
v -0.8 1.6 -0.8
v 0.4 0 0.8
v 0.4 0 -0.8
v -0.8 0 0.8
v -0.8 0 -0.8
v 0.5 0.5 0.5
v 0.5 0.5 -0.5
v 0.4 0.5 0.5
v 0.4 0.5 -0.5
v 0.5 0.6 0.8
v 0.5 0.6 0.5
v 0.5 0.6 -0.5
v 0.5 0.6 -0.8
v 0.4 0.6 0.8
v 0.4 0.6 0.5
v 0.4 0.6 -0.5
v 0.4 0.6 -0.8
v 0.5 1.2 0.6
v 0.5 1.2 -0.6
v 0.4 1.2 0.6
v 0.4 1.2 -0.6
v 0.5 1.3 0.8
v 0.5 1.3 0.6
v 0.5 1.3 -0.6
v 0.5 1.3 -0.8
v 0.4 1.3 0.8
v 0.4 1.3 0.6
v 0.4 1.3 -0.6
v 0.4 1.3 -0.8
v 0.4 1.6 0.8
v 0.4 1.6 -0.8
v -0.8 1.6 0.8
v -0.8 1.6 -0.8

# faces
f 3/2/1 2/2/1 1/2/1
f 4/2/1 2/2/1 3/2/1
f 6/1/1 4/1/1 3/1/1
f 7/1/1 4/1/1 6/1/1
f 8/3/1 6/3/1 5/3/1
f 8/3/1 7/3/1 6/3/1
f 9/3/1 7/3/1 8/3/1
f 10/3/1 7/3/1 9/3/1
f 11/2/1 10/2/1 9/2/1
f 12/2/1 10/2/1 11/2/1
f 15/3/1 14/3/1 13/3/1
f 16/3/1 14/3/1 15/3/1
f 19/3/1 18/3/1 17/3/1
f 20/3/1 18/3/1 19/3/1
f 21/3/2 22/3/2 23/3/2
f 23/3/2 22/3/2 24/3/2
f 25/3/2 26/3/2 27/3/2
f 27/3/2 26/3/2 28/3/2
f 29/2/2 30/2/2 31/2/2
f 31/2/2 30/2/2 32/2/2
f 31/1/2 32/1/2 34/1/2
f 34/1/2 32/1/2 35/1/2
f 33/3/2 34/3/2 36/3/2
f 34/3/2 35/3/2 36/3/2
f 36/3/2 35/3/2 37/3/2
f 37/3/2 35/3/2 38/3/2
f 37/2/2 38/2/2 39/2/2
f 39/2/2 38/2/2 40/2/2
f 43/3/3 42/3/3 41/3/3
f 44/3/3 42/3/3 43/3/3
f 46/3/3 43/3/3 41/3/3
f 47/3/3 46/3/3 45/3/3
f 48/3/3 43/3/3 46/3/3
f 48/3/3 46/3/3 47/3/3
f 49/3/3 43/3/3 48/3/3
f 51/3/3 49/3/3 48/3/3
f 51/3/3 50/3/3 49/3/3
f 52/3/3 50/3/3 51/3/3
f 59/2/3 57/2/3 56/2/3
f 60/2/3 54/2/3 53/2/3
f 61/1/3 55/1/3 54/1/3
f 61/2/3 54/2/3 60/2/3
f 62/1/3 55/1/3 61/1/3
f 63/2/3 60/2/3 53/2/3
f 63/1/3 61/1/3 60/1/3
f 64/1/3 61/1/3 63/1/3
f 66/2/3 59/2/3 58/2/3
f 67/2/3 57/2/3 59/2/3
f 67/2/3 59/2/3 66/2/3
f 68/2/3 64/2/3 63/2/3
f 68/2/3 63/2/3 53/2/3
f 69/1/3 65/1/3 64/1/3
f 69/2/3 64/2/3 68/2/3
f 70/1/3 65/1/3 69/1/3
f 71/2/3 57/2/3 67/2/3
f 72/2/3 57/2/3 71/2/3
f 73/2/4 74/2/4 78/2/4
f 74/1/4 75/1/4 79/1/4
f 78/2/4 74/2/4 79/2/4
f 75/3/4 76/3/4 80/3/4
f 79/1/4 75/1/4 80/1/4
f 76/2/4 77/2/4 81/2/4
f 80/3/4 76/3/4 81/3/4
f 81/2/4 77/2/4 82/2/4
f 85/2/5 84/2/5 83/2/5
f 86/2/5 84/2/5 85/2/5
f 89/3/5 88/3/5 87/3/5
f 90/3/5 88/3/5 89/3/5
f 95/3/5 92/3/5 91/3/5
f 96/3/5 92/3/5 95/3/5
f 97/3/5 94/3/5 93/3/5
f 98/3/5 94/3/5 97/3/5
f 99/3/6 100/3/6 101/3/6
f 101/3/6 100/3/6 102/3/6
f 103/3/6 104/3/6 107/3/6
f 107/3/6 104/3/6 108/3/6
f 105/3/6 106/3/6 109/3/6
f 109/3/6 106/3/6 110/3/6
f 111/2/6 112/2/6 113/2/6
f 113/2/6 112/2/6 114/2/6
