# MagicaVoxel @ Ephtracy

# group
o 

# material
mtllib WinterGrass-21.mtl
usemtl palette

# normals
vn -1 0 0
vn 1 0 0
vn 0 0 1
vn 0 0 -1
vn 0 -1 0
vn 0 1 0

# texcoords
vt 0.595703 0.5
vt 0.626953 0.5
vt 0.658203 0.5
vt 0.962891 0.5
vt 0.966797 0.5

# verts
v -0.8 0 0.8
v -0.8 0 -0.8
v -0.8 0.1 0.1
v -0.8 0.1 -0.3
v -0.8 0.2 0.4
v -0.8 0.2 0.1
v -0.8 0.2 -0.3
v -0.8 0.2 -0.7
v -0.8 0.3 0.8
v -0.8 0.3 0.4
v -0.8 0.3 -0.7
v -0.8 0.3 -0.8
v -0.8 0.5 0
v -0.8 0.5 -0.3
v -0.8 0.6 0.8
v -0.8 0.6 0.5
v -0.8 0.6 0.4
v -0.8 0.6 0
v -0.8 0.6 -0.3
v -0.8 0.6 -0.8
v -0.8 0.7 0.5
v -0.8 0.7 0.4
v -0.8 1.1 0.8
v -0.8 1.1 -0.8
v -0.8 1.5 0.8
v -0.8 1.5 -0.8
v -0.8 1.6 0.8
v -0.8 1.6 -0.8
v 0.5 0 0.8
v 0.5 0 -0.8
v 0.5 0.2 0
v 0.5 0.2 -0.2
v 0.5 0.3 0.3
v 0.5 0.3 0
v 0.5 0.3 -0.2
v 0.5 0.3 -0.6
v 0.5 0.4 0.8
v 0.5 0.4 0.3
v 0.5 0.4 -0.6
v 0.5 0.4 -0.8
v 0.6 0.2 0
v 0.6 0.2 -0.2
v 0.6 0.3 0.3
v 0.6 0.3 0
v 0.6 0.3 -0.2
v 0.6 0.3 -0.6
v 0.6 0.4 0.8
v 0.6 0.4 0.3
v 0.6 0.4 -0.6
v 0.6 0.4 -0.8
v 0.6 0.6 0
v 0.6 0.6 -0.3
v 0.6 0.7 0.8
v 0.6 0.7 0.6
v 0.6 0.7 0.4
v 0.6 0.7 0
v 0.6 0.7 -0.3
v 0.6 0.7 -0.6
v 0.6 0.8 0.6
v 0.6 0.8 0.4
v 0.6 0.8 -0.6
v 0.6 0.8 -0.8
v 0.7 0.6 0
v 0.7 0.6 -0.3
v 0.7 0.7 0.8
v 0.7 0.7 0.6
v 0.7 0.7 0.4
v 0.7 0.7 0
v 0.7 0.7 -0.3
v 0.7 0.7 -0.6
v 0.7 0.8 0.6
v 0.7 0.8 0.4
v 0.7 0.8 -0.6
v 0.7 0.8 -0.8
v 0.7 1 0.8
v 0.7 1 0.4
v 0.7 1.1 0.6
v 0.7 1.1 0.5
v 0.7 1.1 0.4
v 0.7 1.1 0.3
v 0.7 1.1 0
v 0.7 1.1 -0.8
v 0.7 1.2 0.7
v 0.7 1.2 0.6
v 0.7 1.2 0.5
v 0.7 1.2 0.3
v 0.7 1.2 0
v 0.7 1.2 -0.3
v 0.7 1.2 -0.4
v 0.7 1.3 0.8
v 0.7 1.3 0.7
v 0.7 1.3 0.6
v 0.7 1.3 0.5
v 0.7 1.3 0.4
v 0.7 1.3 0.2
v 0.7 1.3 -0.2
v 0.7 1.3 -0.3
v 0.7 1.3 -0.4
v 0.7 1.3 -0.7
v 0.7 1.3 -0.8
v 0.7 1.4 0.6
v 0.7 1.4 0.5
v 0.7 1.4 0.4
v 0.7 1.4 0.2
v 0.7 1.4 0.1
v 0.7 1.4 -0.2
v 0.7 1.4 -0.3
v 0.7 1.4 -0.4
v 0.7 1.4 -0.5
v 0.7 1.4 -0.6
v 0.7 1.5 0.6
v 0.7 1.5 0.5
v 0.7 1.5 0.2
v 0.7 1.5 0.1
v 0.7 1.5 -0.5
v 0.7 1.5 -0.6
v 0.8 1.1 0.6
v 0.8 1.1 0.5
v 0.8 1.2 0.7
v 0.8 1.2 0.6
v 0.8 1.2 0.5
v 0.8 1.2 -0.3
v 0.8 1.2 -0.4
v 0.8 1.3 0.8
v 0.8 1.3 0.7
v 0.8 1.3 0.6
v 0.8 1.3 0.5
v 0.8 1.3 0.4
v 0.8 1.3 0.2
v 0.8 1.3 -0.2
v 0.8 1.3 -0.3
v 0.8 1.3 -0.4
v 0.8 1.3 -0.7
v 0.8 1.3 -0.8
v 0.8 1.4 0.8
v 0.8 1.4 0.7
v 0.8 1.4 0.6
v 0.8 1.4 0.5
v 0.8 1.4 0.4
v 0.8 1.4 0.2
v 0.8 1.4 0.1
v 0.8 1.4 -0.2
v 0.8 1.4 -0.3
v 0.8 1.4 -0.4
v 0.8 1.4 -0.5
v 0.8 1.4 -0.6
v 0.8 1.4 -0.7
v 0.8 1.5 0.7
v 0.8 1.5 0.6
v 0.8 1.5 0.5
v 0.8 1.5 0.2
v 0.8 1.5 0.1
v 0.8 1.5 -0.3
v 0.8 1.5 -0.4
v 0.8 1.5 -0.5
v 0.8 1.5 -0.6
v 0.8 1.6 0.8
v 0.8 1.6 -0.8
v -0.8 0 0.8
v -0.8 0.3 0.8
v -0.8 0.6 0.8
v -0.8 1.1 0.8
v -0.8 1.5 0.8
v -0.8 1.6 0.8
v 0.4 0.3 0.8
v 0.4 0.4 0.8
v 0.5 0 0.8
v 0.5 0.4 0.8
v 0.5 0.6 0.8
v 0.5 0.7 0.8
v 0.6 0.4 0.8
v 0.6 0.7 0.8
v 0.6 1 0.8
v 0.6 1.1 0.8
v 0.7 0.7 0.8
v 0.7 1 0.8
v 0.7 1.3 0.8
v 0.7 1.4 0.8
v 0.7 1.5 0.8
v 0.8 1.3 0.8
v 0.8 1.4 0.8
v 0.8 1.6 0.8
v 0.7 1.2 0.7
v 0.7 1.3 0.7
v 0.8 1.2 0.7
v 0.8 1.3 0.7
v 0.7 1.1 0.6
v 0.7 1.2 0.6
v 0.8 1.1 0.6
v 0.8 1.2 0.6
v 0.7 1.4 0.5
v 0.7 1.5 0.5
v 0.8 1.4 0.5
v 0.8 1.5 0.5
v 0.6 0.7 0.4
v 0.6 0.8 0.4
v 0.7 0.7 0.4
v 0.7 0.8 0.4
v 0.7 1.3 0.4
v 0.7 1.4 0.4
v 0.8 1.3 0.4
v 0.8 1.4 0.4
v 0.5 0.3 0.3
v 0.5 0.4 0.3
v 0.6 0.3 0.3
v 0.6 0.4 0.3
v 0.7 1.4 0.1
v 0.7 1.5 0.1
v 0.8 1.4 0.1
v 0.8 1.5 0.1
v 0.5 0.2 0
v 0.5 0.3 0
v 0.6 0.2 0
v 0.6 0.3 0
v 0.6 0.6 0
v 0.6 0.7 0
v 0.7 0.6 0
v 0.7 0.7 0
v 0.7 1.3 -0.2
v 0.7 1.4 -0.2
v 0.8 1.3 -0.2
v 0.8 1.4 -0.2
v 0.7 1.2 -0.3
v 0.7 1.3 -0.3
v 0.8 1.2 -0.3
v 0.8 1.3 -0.3
v 0.7 1.3 -0.4
v 0.7 1.4 -0.4
v 0.8 1.3 -0.4
v 0.8 1.4 -0.4
v 0.7 1.4 -0.6
v 0.7 1.5 -0.6
v 0.8 1.4 -0.6
v 0.8 1.5 -0.6
v 0.6 0.7 0.6
v 0.6 0.8 0.6
v 0.7 0.7 0.6
v 0.7 0.8 0.6
v 0.7 1.2 0.6
v 0.7 1.3 0.6
v 0.7 1.4 0.6
v 0.7 1.5 0.6
v 0.8 1.2 0.6
v 0.8 1.3 0.6
v 0.8 1.4 0.6
v 0.8 1.5 0.6
v 0.7 1.1 0.5
v 0.7 1.2 0.5
v 0.7 1.3 0.5
v 0.7 1.4 0.5
v 0.8 1.1 0.5
v 0.8 1.2 0.5
v 0.8 1.3 0.5
v 0.8 1.4 0.5
v 0.7 1.3 0.2
v 0.7 1.4 0.2
v 0.7 1.5 0.2
v 0.8 1.3 0.2
v 0.8 1.4 0.2
v 0.8 1.5 0.2
v 0.5 0.2 -0.2
v 0.5 0.3 -0.2
v 0.6 0.2 -0.2
v 0.6 0.3 -0.2
v 0.6 0.6 -0.3
v 0.6 0.7 -0.3
v 0.7 0.6 -0.3
v 0.7 0.7 -0.3
v 0.7 1.3 -0.3
v 0.7 1.4 -0.3
v 0.8 1.3 -0.3
v 0.8 1.4 -0.3
v 0.7 1.2 -0.4
v 0.7 1.3 -0.4
v 0.8 1.2 -0.4
v 0.8 1.3 -0.4
v 0.7 1.4 -0.5
v 0.7 1.5 -0.5
v 0.8 1.4 -0.5
v 0.8 1.5 -0.5
v 0.5 0.3 -0.6
v 0.5 0.4 -0.6
v 0.6 0.3 -0.6
v 0.6 0.4 -0.6
v 0.6 0.7 -0.6
v 0.6 0.8 -0.6
v 0.7 0.7 -0.6
v 0.7 0.8 -0.6
v -0.8 0 -0.8
v -0.8 0.3 -0.8
v -0.8 0.6 -0.8
v -0.8 1.1 -0.8
v -0.8 1.5 -0.8
v -0.8 1.6 -0.8
v 0.4 0.3 -0.8
v 0.4 0.4 -0.8
v 0.5 0 -0.8
v 0.5 0.4 -0.8
v 0.5 0.6 -0.8
v 0.5 0.8 -0.8
v 0.6 0.4 -0.8
v 0.6 0.8 -0.8
v 0.6 1.3 -0.8
v 0.6 1.5 -0.8
v 0.7 0.8 -0.8
v 0.7 1.1 -0.8
v 0.7 1.3 -0.8
v 0.7 1.5 -0.8
v 0.8 1.3 -0.8
v 0.8 1.6 -0.8
v -0.8 0 0.8
v 0.5 0 0.8
v -0.8 0 -0.8
v 0.5 0 -0.8
v 0.5 0.2 0
v 0.6 0.2 0
v 0.5 0.2 -0.2
v 0.6 0.2 -0.2
v 0.5 0.3 0.3
v 0.6 0.3 0.3
v 0.5 0.3 0
v 0.6 0.3 0
v 0.5 0.3 -0.2
v 0.6 0.3 -0.2
v 0.5 0.3 -0.6
v 0.6 0.3 -0.6
v 0.5 0.4 0.8
v 0.6 0.4 0.8
v 0.5 0.4 0.3
v 0.6 0.4 0.3
v 0.5 0.4 -0.6
v 0.6 0.4 -0.6
v 0.5 0.4 -0.8
v 0.6 0.4 -0.8
v 0.6 0.6 0
v 0.7 0.6 0
v 0.6 0.6 -0.3
v 0.7 0.6 -0.3
v 0.6 0.7 0.8
v 0.7 0.7 0.8
v 0.6 0.7 0.6
v 0.7 0.7 0.6
v 0.6 0.7 0.4
v 0.7 0.7 0.4
v 0.6 0.7 0
v 0.7 0.7 0
v 0.6 0.7 -0.3
v 0.7 0.7 -0.3
v 0.6 0.7 -0.6
v 0.7 0.7 -0.6
v 0.6 0.8 0.6
v 0.7 0.8 0.6
v 0.6 0.8 0.4
v 0.7 0.8 0.4
v 0.6 0.8 -0.6
v 0.7 0.8 -0.6
v 0.6 0.8 -0.8
v 0.7 0.8 -0.8
v 0.7 1.1 0.6
v 0.8 1.1 0.6
v 0.7 1.1 0.5
v 0.8 1.1 0.5
v 0.7 1.2 0.7
v 0.8 1.2 0.7
v 0.7 1.2 0.6
v 0.8 1.2 0.6
v 0.7 1.2 -0.3
v 0.8 1.2 -0.3
v 0.7 1.2 -0.4
v 0.8 1.2 -0.4
v 0.7 1.3 0.8
v 0.8 1.3 0.8
v 0.7 1.3 0.7
v 0.8 1.3 0.7
v 0.7 1.3 0.6
v 0.8 1.3 0.6
v 0.7 1.3 0.5
v 0.8 1.3 0.5
v 0.7 1.3 0.4
v 0.8 1.3 0.4
v 0.7 1.3 0.2
v 0.8 1.3 0.2
v 0.7 1.3 -0.2
v 0.8 1.3 -0.2
v 0.7 1.3 -0.3
v 0.8 1.3 -0.3
v 0.7 1.3 -0.4
v 0.8 1.3 -0.4
v 0.7 1.3 -0.7
v 0.8 1.3 -0.7
v 0.7 1.3 -0.8
v 0.8 1.3 -0.8
v 0.7 1.4 0.5
v 0.8 1.4 0.5
v 0.7 1.4 0.4
v 0.8 1.4 0.4
v 0.7 1.4 0.1
v 0.8 1.4 0.1
v 0.7 1.4 -0.2
v 0.8 1.4 -0.2
v 0.7 1.4 -0.3
v 0.8 1.4 -0.3
v 0.7 1.4 -0.4
v 0.8 1.4 -0.4
v 0.7 1.5 0.6
v 0.8 1.5 0.6
v 0.7 1.5 0.5
v 0.8 1.5 0.5
v 0.7 1.5 0.2
v 0.8 1.5 0.2
v 0.7 1.5 0.1
v 0.8 1.5 0.1
v 0.7 1.5 -0.5
v 0.8 1.5 -0.5
v 0.7 1.5 -0.6
v 0.8 1.5 -0.6
v 0.7 1.2 0.6
v 0.8 1.2 0.6
v 0.7 1.2 0.5
v 0.8 1.2 0.5
v 0.7 1.3 -0.3
v 0.8 1.3 -0.3
v 0.7 1.3 -0.4
v 0.8 1.3 -0.4
v 0.7 1.4 0.6
v 0.8 1.4 0.6
v 0.7 1.4 0.5
v 0.8 1.4 0.5
v 0.7 1.4 -0.5
v 0.8 1.4 -0.5
v 0.7 1.4 -0.6
v 0.8 1.4 -0.6
v -0.8 1.6 0.8
v 0.8 1.6 0.8
v -0.8 1.6 -0.8
v 0.8 1.6 -0.8

# faces
f 3/1/1 2/1/1 1/1/1
f 4/1/1 2/1/1 3/1/1
f 5/1/1 3/1/1 1/1/1
f 6/2/1 4/2/1 3/2/1
f 6/1/1 3/1/1 5/1/1
f 7/1/1 2/1/1 4/1/1
f 7/2/1 4/2/1 6/2/1
f 8/1/1 2/1/1 7/1/1
f 9/1/1 5/1/1 1/1/1
f 10/2/1 6/2/1 5/2/1
f 10/1/1 5/1/1 9/1/1
f 10/2/1 7/2/1 6/2/1
f 10/2/1 8/2/1 7/2/1
f 11/1/1 2/1/1 8/1/1
f 11/2/1 8/2/1 10/2/1
f 12/1/1 2/1/1 11/1/1
f 13/2/1 10/2/1 9/2/1
f 13/2/1 11/2/1 10/2/1
f 13/2/1 12/2/1 11/2/1
f 14/2/1 12/2/1 13/2/1
f 15/2/1 13/2/1 9/2/1
f 16/2/1 13/2/1 15/2/1
f 17/2/1 13/2/1 16/2/1
f 18/3/1 14/3/1 13/3/1
f 18/2/1 13/2/1 17/2/1
f 19/2/1 12/2/1 14/2/1
f 19/3/1 14/3/1 18/3/1
f 20/2/1 12/2/1 19/2/1
f 21/2/1 17/2/1 16/2/1
f 21/3/1 16/3/1 15/3/1
f 22/3/1 18/3/1 17/3/1
f 22/2/1 17/2/1 21/2/1
f 22/3/1 20/3/1 19/3/1
f 22/3/1 19/3/1 18/3/1
f 23/3/1 21/3/1 15/3/1
f 23/3/1 22/3/1 21/3/1
f 24/3/1 20/3/1 22/3/1
f 24/3/1 22/3/1 23/3/1
f 25/2/1 24/2/1 23/2/1
f 26/2/1 24/2/1 25/2/1
f 27/4/1 26/4/1 25/4/1
f 28/4/1 26/4/1 27/4/1
f 29/1/2 30/1/2 31/1/2
f 31/1/2 30/1/2 32/1/2
f 29/1/2 31/1/2 33/1/2
f 33/1/2 31/1/2 34/1/2
f 32/1/2 30/1/2 35/1/2
f 35/1/2 30/1/2 36/1/2
f 29/1/2 33/1/2 37/1/2
f 37/1/2 33/1/2 38/1/2
f 36/1/2 30/1/2 39/1/2
f 39/1/2 30/1/2 40/1/2
f 41/2/2 42/2/2 44/2/2
f 44/2/2 42/2/2 45/2/2
f 43/2/2 44/2/2 48/2/2
f 45/2/2 46/2/2 48/2/2
f 44/2/2 45/2/2 48/2/2
f 48/2/2 46/2/2 49/2/2
f 47/2/2 48/2/2 51/2/2
f 49/2/2 50/2/2 51/2/2
f 48/2/2 49/2/2 51/2/2
f 51/2/2 50/2/2 52/2/2
f 47/2/2 51/2/2 53/2/2
f 53/2/2 51/2/2 54/2/2
f 54/2/2 51/2/2 55/2/2
f 55/2/2 51/2/2 56/2/2
f 52/2/2 50/2/2 57/2/2
f 57/2/2 50/2/2 58/2/2
f 54/2/2 55/2/2 59/2/2
f 59/2/2 55/2/2 60/2/2
f 58/2/2 50/2/2 61/2/2
f 61/2/2 50/2/2 62/2/2
f 63/3/2 64/3/2 68/3/2
f 68/3/2 64/3/2 69/3/2
f 65/3/2 66/3/2 71/3/2
f 69/3/2 70/3/2 72/3/2
f 67/3/2 68/3/2 72/3/2
f 68/3/2 69/3/2 72/3/2
f 72/3/2 70/3/2 73/3/2
f 65/3/2 71/3/2 75/3/2
f 73/3/2 74/3/2 75/3/2
f 72/3/2 73/3/2 75/3/2
f 71/3/2 72/3/2 75/3/2
f 75/3/2 74/3/2 76/3/2
f 75/2/2 76/2/2 77/2/2
f 77/2/2 76/2/2 78/2/2
f 76/3/2 74/3/2 79/3/2
f 78/2/2 76/2/2 79/2/2
f 79/3/2 74/3/2 80/3/2
f 80/3/2 74/3/2 81/3/2
f 81/3/2 74/3/2 82/3/2
f 75/2/2 77/2/2 83/2/2
f 83/2/2 77/2/2 84/2/2
f 78/2/2 79/2/2 85/2/2
f 79/2/2 80/2/2 85/2/2
f 80/3/2 81/3/2 86/3/2
f 85/2/2 80/2/2 86/2/2
f 81/2/2 82/2/2 87/2/2
f 86/3/2 81/3/2 87/3/2
f 87/2/2 82/2/2 88/2/2
f 88/2/2 82/2/2 89/2/2
f 75/2/2 83/2/2 90/2/2
f 90/2/2 83/2/2 91/2/2
f 85/2/2 86/2/2 92/2/2
f 87/2/2 88/2/2 92/2/2
f 84/2/2 85/2/2 92/2/2
f 86/2/2 87/2/2 92/2/2
f 92/2/2 88/2/2 93/2/2
f 93/2/2 88/2/2 94/2/2
f 94/2/2 88/2/2 95/2/2
f 95/2/2 88/2/2 96/2/2
f 96/2/2 88/2/2 97/2/2
f 89/2/2 82/2/2 98/2/2
f 98/2/2 82/2/2 99/2/2
f 99/2/2 82/2/2 100/2/2
f 93/2/2 94/2/2 102/2/2
f 102/2/2 94/2/2 103/2/2
f 95/2/2 96/2/2 104/2/2
f 104/2/2 96/2/2 105/2/2
f 105/2/2 96/2/2 106/2/2
f 97/2/2 98/2/2 107/2/2
f 107/2/2 98/2/2 108/2/2
f 101/2/2 102/2/2 111/2/2
f 111/2/2 102/2/2 112/2/2
f 104/2/2 105/2/2 113/2/2
f 113/2/2 105/2/2 114/2/2
f 109/2/2 110/2/2 115/2/2
f 115/2/2 110/2/2 116/2/2
f 117/5/2 118/5/2 120/5/2
f 120/5/2 118/5/2 121/5/2
f 119/5/2 120/5/2 125/5/2
f 125/5/2 120/5/2 126/5/2
f 122/5/2 123/5/2 131/5/2
f 131/5/2 123/5/2 132/5/2
f 124/5/2 125/5/2 135/5/2
f 125/5/2 126/5/2 135/5/2
f 126/5/2 127/5/2 135/5/2
f 135/5/2 127/5/2 136/5/2
f 136/5/2 127/5/2 137/5/2
f 137/5/2 127/5/2 138/5/2
f 128/5/2 129/5/2 139/5/2
f 139/5/2 129/5/2 140/5/2
f 130/4/2 131/4/2 142/4/2
f 142/4/2 131/4/2 143/4/2
f 132/5/2 133/5/2 144/5/2
f 144/5/2 133/5/2 145/5/2
f 145/5/2 133/5/2 146/5/2
f 133/4/2 134/4/2 147/4/2
f 146/5/2 133/5/2 147/5/2
f 135/4/2 136/4/2 148/4/2
f 136/5/2 137/5/2 148/5/2
f 148/5/2 137/5/2 149/5/2
f 139/4/2 140/4/2 150/4/2
f 138/4/2 139/4/2 150/4/2
f 150/4/2 140/4/2 151/4/2
f 142/5/2 143/5/2 152/5/2
f 141/5/2 142/5/2 152/5/2
f 143/4/2 144/4/2 153/4/2
f 152/5/2 143/5/2 153/5/2
f 144/5/2 145/5/2 154/5/2
f 153/4/2 144/4/2 154/4/2
f 154/5/2 145/5/2 155/5/2
f 146/4/2 147/4/2 156/4/2
f 154/4/2 155/4/2 157/4/2
f 155/4/2 156/4/2 157/4/2
f 150/4/2 151/4/2 157/4/2
f 148/4/2 149/4/2 157/4/2
f 153/4/2 154/4/2 157/4/2
f 152/4/2 153/4/2 157/4/2
f 151/4/2 152/4/2 157/4/2
f 135/4/2 148/4/2 157/4/2
f 149/4/2 150/4/2 157/4/2
f 147/4/2 134/4/2 158/4/2
f 157/4/2 156/4/2 158/4/2
f 156/4/2 147/4/2 158/4/2
f 165/1/3 160/1/3 159/1/3
f 165/2/3 161/2/3 160/2/3
f 166/2/3 161/2/3 165/2/3
f 167/1/3 165/1/3 159/1/3
f 167/1/3 166/1/3 165/1/3
f 168/2/3 161/2/3 166/2/3
f 168/1/3 166/1/3 167/1/3
f 169/3/3 162/3/3 161/3/3
f 169/2/3 161/2/3 168/2/3
f 170/3/3 162/3/3 169/3/3
f 171/2/3 169/2/3 168/2/3
f 171/2/3 170/2/3 169/2/3
f 172/3/3 162/3/3 170/3/3
f 172/2/3 170/2/3 171/2/3
f 173/3/3 162/3/3 172/3/3
f 174/2/3 163/2/3 162/2/3
f 174/3/3 162/3/3 173/3/3
f 175/3/3 173/3/3 172/3/3
f 176/2/3 174/2/3 173/2/3
f 176/3/3 173/3/3 175/3/3
f 177/2/3 163/2/3 174/2/3
f 177/2/3 174/2/3 176/2/3
f 178/2/3 163/2/3 177/2/3
f 179/4/3 164/4/3 163/4/3
f 179/2/3 163/2/3 178/2/3
f 180/5/3 178/5/3 177/5/3
f 181/4/3 179/4/3 178/4/3
f 181/5/3 178/5/3 180/5/3
f 182/4/3 164/4/3 179/4/3
f 182/4/3 179/4/3 181/4/3
f 185/5/3 184/5/3 183/5/3
f 186/5/3 184/5/3 185/5/3
f 189/5/3 188/5/3 187/5/3
f 190/5/3 188/5/3 189/5/3
f 193/4/3 192/4/3 191/4/3
f 194/4/3 192/4/3 193/4/3
f 197/3/3 196/3/3 195/3/3
f 198/3/3 196/3/3 197/3/3
f 201/5/3 200/5/3 199/5/3
f 202/5/3 200/5/3 201/5/3
f 205/2/3 204/2/3 203/2/3
f 206/2/3 204/2/3 205/2/3
f 209/5/3 208/5/3 207/5/3
f 210/5/3 208/5/3 209/5/3
f 213/2/3 212/2/3 211/2/3
f 214/2/3 212/2/3 213/2/3
f 217/3/3 216/3/3 215/3/3
f 218/3/3 216/3/3 217/3/3
f 221/4/3 220/4/3 219/4/3
f 222/4/3 220/4/3 221/4/3
f 225/5/3 224/5/3 223/5/3
f 226/5/3 224/5/3 225/5/3
f 229/5/3 228/5/3 227/5/3
f 230/5/3 228/5/3 229/5/3
f 233/4/3 232/4/3 231/4/3
f 234/4/3 232/4/3 233/4/3
f 235/3/4 236/3/4 237/3/4
f 237/3/4 236/3/4 238/3/4
f 239/5/4 240/5/4 243/5/4
f 243/5/4 240/5/4 244/5/4
f 241/5/4 242/5/4 245/5/4
f 245/5/4 242/5/4 246/5/4
f 247/5/4 248/5/4 251/5/4
f 251/5/4 248/5/4 252/5/4
f 249/5/4 250/5/4 253/5/4
f 253/5/4 250/5/4 254/5/4
f 255/5/4 256/5/4 258/5/4
f 256/4/4 257/4/4 259/4/4
f 258/5/4 256/5/4 259/5/4
f 259/4/4 257/4/4 260/4/4
f 261/2/4 262/2/4 263/2/4
f 263/2/4 262/2/4 264/2/4
f 265/3/4 266/3/4 267/3/4
f 267/3/4 266/3/4 268/3/4
f 269/4/4 270/4/4 271/4/4
f 271/4/4 270/4/4 272/4/4
f 273/5/4 274/5/4 275/5/4
f 275/5/4 274/5/4 276/5/4
f 277/5/4 278/5/4 279/5/4
f 279/5/4 278/5/4 280/5/4
f 281/2/4 282/2/4 283/2/4
f 283/2/4 282/2/4 284/2/4
f 285/3/4 286/3/4 287/3/4
f 287/3/4 286/3/4 288/3/4
f 289/1/4 290/1/4 295/1/4
f 290/2/4 291/2/4 295/2/4
f 295/2/4 291/2/4 296/2/4
f 289/1/4 295/1/4 297/1/4
f 295/1/4 296/1/4 297/1/4
f 296/2/4 291/2/4 298/2/4
f 297/1/4 296/1/4 298/1/4
f 291/3/4 292/3/4 299/3/4
f 298/2/4 291/2/4 299/2/4
f 299/3/4 292/3/4 300/3/4
f 298/2/4 299/2/4 301/2/4
f 299/2/4 300/2/4 301/2/4
f 300/3/4 292/3/4 302/3/4
f 301/2/4 300/2/4 302/2/4
f 292/2/4 293/2/4 303/2/4
f 293/4/4 294/4/4 304/4/4
f 303/2/4 293/2/4 304/2/4
f 302/3/4 292/3/4 305/3/4
f 292/2/4 303/2/4 306/2/4
f 305/3/4 292/3/4 306/3/4
f 303/3/4 304/3/4 307/3/4
f 306/2/4 303/2/4 307/2/4
f 304/4/4 294/4/4 308/4/4
f 307/3/4 304/3/4 308/3/4
f 307/4/4 308/4/4 309/4/4
f 308/4/4 294/4/4 310/4/4
f 309/4/4 308/4/4 310/4/4
f 313/1/5 312/1/5 311/1/5
f 314/1/5 312/1/5 313/1/5
f 317/2/5 316/2/5 315/2/5
f 318/2/5 316/2/5 317/2/5
f 321/2/5 320/2/5 319/2/5
f 322/2/5 320/2/5 321/2/5
f 325/2/5 324/2/5 323/2/5
f 326/2/5 324/2/5 325/2/5
f 329/2/5 328/2/5 327/2/5
f 330/2/5 328/2/5 329/2/5
f 333/2/5 332/2/5 331/2/5
f 334/2/5 332/2/5 333/2/5
f 337/3/5 336/3/5 335/3/5
f 338/3/5 336/3/5 337/3/5
f 341/3/5 340/3/5 339/3/5
f 342/3/5 340/3/5 341/3/5
f 345/3/5 344/3/5 343/3/5
f 346/3/5 344/3/5 345/3/5
f 349/3/5 348/3/5 347/3/5
f 350/3/5 348/3/5 349/3/5
f 353/3/5 352/3/5 351/3/5
f 354/3/5 352/3/5 353/3/5
f 357/3/5 356/3/5 355/3/5
f 358/3/5 356/3/5 357/3/5
f 361/5/5 360/5/5 359/5/5
f 362/5/5 360/5/5 361/5/5
f 365/5/5 364/5/5 363/5/5
f 366/5/5 364/5/5 365/5/5
f 369/5/5 368/5/5 367/5/5
f 370/5/5 368/5/5 369/5/5
f 373/5/5 372/5/5 371/5/5
f 374/5/5 372/5/5 373/5/5
f 377/5/5 376/5/5 375/5/5
f 378/5/5 376/5/5 377/5/5
f 381/5/5 380/5/5 379/5/5
f 382/5/5 380/5/5 381/5/5
f 385/4/5 384/4/5 383/4/5
f 386/4/5 384/4/5 385/4/5
f 389/5/5 388/5/5 387/5/5
f 390/5/5 388/5/5 389/5/5
f 391/4/5 390/4/5 389/4/5
f 392/4/5 390/4/5 391/4/5
f 395/4/5 394/4/5 393/4/5
f 396/4/5 394/4/5 395/4/5
f 399/5/5 398/5/5 397/5/5
f 400/5/5 398/5/5 399/5/5
f 403/4/5 402/4/5 401/4/5
f 404/4/5 402/4/5 403/4/5
f 407/4/5 406/4/5 405/4/5
f 408/4/5 406/4/5 407/4/5
f 411/4/5 410/4/5 409/4/5
f 412/4/5 410/4/5 411/4/5
f 415/4/5 414/4/5 413/4/5
f 416/4/5 414/4/5 415/4/5
f 417/5/6 418/5/6 419/5/6
f 419/5/6 418/5/6 420/5/6
f 421/5/6 422/5/6 423/5/6
f 423/5/6 422/5/6 424/5/6
f 425/5/6 426/5/6 427/5/6
f 427/5/6 426/5/6 428/5/6
f 429/5/6 430/5/6 431/5/6
f 431/5/6 430/5/6 432/5/6
f 433/4/6 434/4/6 435/4/6
f 435/4/6 434/4/6 436/4/6
