# MagicaVoxel @ Ephtracy

# group
o 

# material
mtllib WinterGrass-13.mtl
usemtl palette

# normals
vn 1 0 0
vn -1 0 0
vn 0 0 -1
vn 0 0 1
vn 0 -1 0
vn 0 1 0

# texcoords
vt 0.595703 0.5
vt 0.626953 0.5
vt 0.658203 0.5

# verts
v 0.6 0 -0.6
v 0.6 0 0.8
v 0.6 0.5 -0.6
v 0.6 0.5 -0.5
v 0.6 0.7 -0.4
v 0.6 0.7 0.1
v 0.6 0.8 -0.5
v 0.6 0.8 -0.4
v 0.6 0.8 0.1
v 0.6 0.8 0.2
v 0.6 0.8 0.6
v 0.6 0.8 0.8
v 0.6 0.9 0.2
v 0.6 0.9 0.6
v 0.5 0.5 -0.6
v 0.5 0.5 -0.5
v 0.5 0.7 -0.4
v 0.5 0.7 0.1
v 0.5 0.8 -0.6
v 0.5 0.8 -0.5
v 0.5 0.8 -0.4
v 0.5 0.8 0.1
v 0.5 0.8 0.2
v 0.5 0.8 0.6
v 0.5 0.8 0.8
v 0.5 0.9 0.2
v 0.5 0.9 0.6
v 0.5 1.1 -0.4
v 0.5 1.1 -0.1
v 0.5 1.2 -0.5
v 0.5 1.2 -0.4
v 0.5 1.2 -0.1
v 0.5 1.2 0.2
v 0.5 1.2 0.6
v 0.5 1.2 0.8
v 0.5 1.3 0.2
v 0.5 1.3 0.6
v 0.4 1.1 -0.4
v 0.4 1.1 -0.1
v 0.4 1.2 -0.4
v 0.4 1.2 -0.1
v 0.4 1.2 0.2
v 0.4 1.2 0.6
v 0.4 1.2 0.8
v 0.4 1.3 0.2
v 0.4 1.3 0.6
v 0.4 1.6 -0.4
v 0.4 1.6 0.8
v -0.2 0.5 -0.6
v -0.2 0.5 -0.5
v -0.2 0.6 -0.6
v -0.2 0.6 -0.5
v -0.2 1 -0.5
v -0.2 1 -0.4
v -0.2 1.1 -0.5
v -0.2 1.1 -0.4
v -0.4 1.1 -0.5
v -0.4 1.1 -0.4
v -0.4 1.2 -0.5
v -0.4 1.2 -0.4
v -0.5 0.6 -0.6
v -0.5 0.6 -0.5
v -0.5 0.7 -0.6
v -0.5 0.7 -0.5
v 0.4 0.7 -0.6
v 0.4 0.7 -0.5
v 0.4 0.8 -0.6
v 0.4 0.8 -0.5
v 0.3 1.1 -0.5
v 0.3 1.1 -0.4
v 0.3 1.2 -0.5
v 0.3 1.2 -0.4
v 0.1 0.6 -0.6
v 0.1 0.6 -0.5
v 0.1 0.7 -0.6
v 0.1 0.7 -0.5
v 0 0.5 -0.6
v 0 0.5 -0.5
v 0 0.6 -0.6
v 0 0.6 -0.5
v 0 1 -0.5
v 0 1 -0.4
v 0 1.1 -0.5
v 0 1.1 -0.4
v -0.8 0 -0.6
v -0.8 0 0.8
v -0.8 0.7 -0.6
v -0.8 0.7 -0.5
v -0.8 0.7 0.8
v -0.8 1.2 -0.5
v -0.8 1.2 -0.4
v -0.8 1.2 0.8
v -0.8 1.6 -0.4
v -0.8 1.6 0.8
v 0.6 0 -0.6
v 0.6 0.5 -0.6
v 0.5 0.5 -0.6
v 0.5 0.8 -0.6
v 0.4 0.7 -0.6
v 0.4 0.8 -0.6
v 0.1 0.6 -0.6
v 0.1 0.7 -0.6
v 0 0.5 -0.6
v 0 0.6 -0.6
v -0.2 0.5 -0.6
v -0.2 0.6 -0.6
v -0.5 0.6 -0.6
v -0.5 0.7 -0.6
v -0.8 0 -0.6
v -0.8 0.7 -0.6
v 0.6 0.5 -0.5
v 0.6 0.8 -0.5
v 0.5 0.5 -0.5
v 0.5 0.8 -0.5
v 0.5 1.2 -0.5
v 0.4 0.7 -0.5
v 0.4 0.8 -0.5
v 0.3 1.1 -0.5
v 0.3 1.2 -0.5
v 0.1 0.6 -0.5
v 0.1 0.7 -0.5
v 0 0.5 -0.5
v 0 0.6 -0.5
v 0 1 -0.5
v 0 1.1 -0.5
v -0.2 0.5 -0.5
v -0.2 0.6 -0.5
v -0.2 1 -0.5
v -0.2 1.1 -0.5
v -0.4 1.1 -0.5
v -0.4 1.2 -0.5
v -0.5 0.6 -0.5
v -0.5 0.7 -0.5
v -0.8 0.7 -0.5
v -0.8 1.2 -0.5
v 0.4 1.2 -0.4
v 0.4 1.6 -0.4
v 0.3 1.1 -0.4
v 0.3 1.2 -0.4
v 0 1 -0.4
v 0 1.1 -0.4
v -0.2 1 -0.4
v -0.2 1.1 -0.4
v -0.4 1.1 -0.4
v -0.4 1.2 -0.4
v -0.8 1.2 -0.4
v -0.8 1.6 -0.4
v 0.5 1.1 -0.1
v 0.5 1.2 -0.1
v 0.4 1.1 -0.1
v 0.4 1.2 -0.1
v 0.6 0.7 0.1
v 0.6 0.8 0.1
v 0.5 0.7 0.1
v 0.5 0.8 0.1
v 0.6 0.8 0.2
v 0.6 0.9 0.2
v 0.5 0.8 0.2
v 0.5 0.9 0.2
v 0.5 1.2 0.2
v 0.5 1.3 0.2
v 0.4 1.2 0.2
v 0.4 1.3 0.2
v 0.6 0.7 -0.4
v 0.6 0.8 -0.4
v 0.5 0.7 -0.4
v 0.5 0.8 -0.4
v 0.5 1.1 -0.4
v 0.5 1.2 -0.4
v 0.4 1.1 -0.4
v 0.4 1.2 -0.4
v 0.6 0.8 0.6
v 0.6 0.9 0.6
v 0.5 0.8 0.6
v 0.5 0.9 0.6
v 0.5 1.2 0.6
v 0.5 1.3 0.6
v 0.4 1.2 0.6
v 0.4 1.3 0.6
v 0.6 0 0.8
v 0.6 0.8 0.8
v 0.5 0.7 0.8
v 0.5 0.8 0.8
v 0.5 1.2 0.8
v 0.4 1.2 0.8
v 0.4 1.6 0.8
v -0.8 0 0.8
v -0.8 0.7 0.8
v -0.8 1.2 0.8
v -0.8 1.6 0.8
v 0.6 0 -0.6
v -0.8 0 -0.6
v 0.6 0 0.8
v -0.8 0 0.8
v 0.6 0.5 -0.6
v 0.5 0.5 -0.6
v 0 0.5 -0.6
v -0.2 0.5 -0.6
v 0.6 0.5 -0.5
v 0.5 0.5 -0.5
v 0 0.5 -0.5
v -0.2 0.5 -0.5
v 0.1 0.6 -0.6
v 0 0.6 -0.6
v -0.2 0.6 -0.6
v -0.5 0.6 -0.6
v 0.1 0.6 -0.5
v 0 0.6 -0.5
v -0.2 0.6 -0.5
v -0.5 0.6 -0.5
v 0.4 0.7 -0.6
v 0.1 0.7 -0.6
v -0.5 0.7 -0.6
v -0.8 0.7 -0.6
v 0.4 0.7 -0.5
v 0.1 0.7 -0.5
v -0.5 0.7 -0.5
v -0.8 0.7 -0.5
v 0.6 0.7 -0.4
v 0.5 0.7 -0.4
v 0.6 0.7 0.1
v 0.5 0.7 0.1
v 0.5 0.8 -0.6
v 0.4 0.8 -0.6
v 0.6 0.8 -0.5
v 0.5 0.8 -0.5
v 0.4 0.8 -0.5
v 0.6 0.8 -0.4
v 0.5 0.8 -0.4
v 0.6 0.8 0.1
v 0.5 0.8 0.1
v 0.6 0.8 0.2
v 0.5 0.8 0.2
v 0.6 0.8 0.6
v 0.5 0.8 0.6
v 0.6 0.8 0.8
v 0.5 0.8 0.8
v 0.6 0.9 0.2
v 0.5 0.9 0.2
v 0.6 0.9 0.6
v 0.5 0.9 0.6
v 0 1 -0.5
v -0.2 1 -0.5
v 0 1 -0.4
v -0.2 1 -0.4
v 0.3 1.1 -0.5
v 0 1.1 -0.5
v -0.2 1.1 -0.5
v -0.4 1.1 -0.5
v 0.5 1.1 -0.4
v 0.4 1.1 -0.4
v 0.3 1.1 -0.4
v 0 1.1 -0.4
v -0.2 1.1 -0.4
v -0.4 1.1 -0.4
v 0.5 1.1 -0.1
v 0.4 1.1 -0.1
v 0.5 1.2 -0.5
v 0.3 1.2 -0.5
v -0.4 1.2 -0.5
v -0.8 1.2 -0.5
v 0.5 1.2 -0.4
v 0.4 1.2 -0.4
v 0.3 1.2 -0.4
v -0.4 1.2 -0.4
v -0.8 1.2 -0.4
v 0.5 1.2 -0.1
v 0.4 1.2 -0.1
v 0.5 1.2 0.2
v 0.4 1.2 0.2
v 0.5 1.2 0.6
v 0.4 1.2 0.6
v 0.5 1.2 0.8
v 0.4 1.2 0.8
v 0.5 1.3 0.2
v 0.4 1.3 0.2
v 0.5 1.3 0.6
v 0.4 1.3 0.6
v 0.4 1.6 -0.4
v -0.8 1.6 -0.4
v 0.4 1.6 0.8
v -0.8 1.6 0.8

# faces
f 3/3/1 2/3/1 1/3/1
f 4/3/1 2/3/1 3/3/1
f 5/3/1 2/3/1 4/3/1
f 6/3/1 2/3/1 5/3/1
f 7/3/1 5/3/1 4/3/1
f 8/3/1 5/3/1 7/3/1
f 9/3/1 2/3/1 6/3/1
f 10/3/1 2/3/1 9/3/1
f 11/3/1 2/3/1 10/3/1
f 12/3/1 2/3/1 11/3/1
f 13/3/1 11/3/1 10/3/1
f 14/3/1 11/3/1 13/3/1
f 19/3/1 16/3/1 15/3/1
f 20/3/1 16/3/1 19/3/1
f 21/2/1 18/2/1 17/2/1
f 22/2/1 18/2/1 21/2/1
f 26/2/1 21/2/1 20/2/1
f 26/2/1 23/2/1 22/2/1
f 26/2/1 22/2/1 21/2/1
f 27/2/1 25/2/1 24/2/1
f 28/2/1 26/2/1 20/2/1
f 28/2/1 27/2/1 26/2/1
f 29/2/1 27/2/1 28/2/1
f 30/2/1 28/2/1 20/2/1
f 31/2/1 28/2/1 30/2/1
f 32/2/1 27/2/1 29/2/1
f 33/2/1 27/2/1 32/2/1
f 34/2/1 25/2/1 27/2/1
f 34/2/1 27/2/1 33/2/1
f 35/2/1 25/2/1 34/2/1
f 36/2/1 34/2/1 33/2/1
f 37/2/1 34/2/1 36/2/1
f 40/1/1 39/1/1 38/1/1
f 41/1/1 39/1/1 40/1/1
f 45/1/1 41/1/1 40/1/1
f 45/1/1 42/1/1 41/1/1
f 46/1/1 44/1/1 43/1/1
f 47/1/1 45/1/1 40/1/1
f 47/1/1 46/1/1 45/1/1
f 48/1/1 44/1/1 46/1/1
f 48/1/1 46/1/1 47/1/1
f 51/3/1 50/3/1 49/3/1
f 52/3/1 50/3/1 51/3/1
f 55/2/1 54/2/1 53/2/1
f 56/2/1 54/2/1 55/2/1
f 59/2/1 58/2/1 57/2/1
f 60/2/1 58/2/1 59/2/1
f 63/3/1 62/3/1 61/3/1
f 64/3/1 62/3/1 63/3/1
f 65/3/2 66/3/2 67/3/2
f 67/3/2 66/3/2 68/3/2
f 69/2/2 70/2/2 71/2/2
f 71/2/2 70/2/2 72/2/2
f 73/3/2 74/3/2 75/3/2
f 75/3/2 74/3/2 76/3/2
f 77/3/2 78/3/2 79/3/2
f 79/3/2 78/3/2 80/3/2
f 81/2/2 82/2/2 83/2/2
f 83/2/2 82/2/2 84/2/2
f 85/3/2 86/3/2 87/3/2
f 87/3/2 86/3/2 88/3/2
f 88/3/2 86/3/2 89/3/2
f 88/2/2 89/2/2 90/2/2
f 90/2/2 89/2/2 91/2/2
f 91/2/2 89/2/2 92/2/2
f 91/1/2 92/1/2 93/1/2
f 93/1/2 92/1/2 94/1/2
f 97/3/3 96/3/3 95/3/3
f 99/3/3 98/3/3 97/3/3
f 100/3/3 98/3/3 99/3/3
f 101/3/3 99/3/3 97/3/3
f 102/3/3 99/3/3 101/3/3
f 103/3/3 97/3/3 95/3/3
f 103/3/3 101/3/3 97/3/3
f 104/3/3 101/3/3 103/3/3
f 105/3/3 103/3/3 95/3/3
f 107/3/3 106/3/3 105/3/3
f 109/3/3 107/3/3 105/3/3
f 109/3/3 108/3/3 107/3/3
f 109/3/3 105/3/3 95/3/3
f 110/3/3 108/3/3 109/3/3
f 113/3/3 112/3/3 111/3/3
f 114/3/3 112/3/3 113/3/3
f 117/2/3 115/2/3 114/2/3
f 118/2/3 115/2/3 117/2/3
f 118/2/3 117/2/3 116/2/3
f 119/2/3 115/2/3 118/2/3
f 121/2/3 118/2/3 116/2/3
f 123/2/3 121/2/3 120/2/3
f 124/2/3 118/2/3 121/2/3
f 124/2/3 121/2/3 123/2/3
f 125/2/3 118/2/3 124/2/3
f 126/2/3 123/2/3 122/2/3
f 126/2/3 124/2/3 123/2/3
f 127/2/3 124/2/3 126/2/3
f 128/2/3 124/2/3 127/2/3
f 130/2/3 129/2/3 128/2/3
f 130/2/3 128/2/3 127/2/3
f 132/2/3 130/2/3 127/2/3
f 132/2/3 131/2/3 130/2/3
f 133/2/3 131/2/3 132/2/3
f 134/2/3 131/2/3 133/2/3
f 135/2/3 131/2/3 134/2/3
f 139/1/3 137/1/3 136/1/3
f 141/1/3 139/1/3 138/1/3
f 142/1/3 141/1/3 140/1/3
f 143/1/3 139/1/3 141/1/3
f 143/1/3 141/1/3 142/1/3
f 144/1/3 139/1/3 143/1/3
f 145/1/3 137/1/3 139/1/3
f 145/1/3 139/1/3 144/1/3
f 146/1/3 137/1/3 145/1/3
f 147/1/3 137/1/3 146/1/3
f 150/2/3 149/2/3 148/2/3
f 151/2/3 149/2/3 150/2/3
f 154/3/3 153/3/3 152/3/3
f 155/3/3 153/3/3 154/3/3
f 158/3/3 157/3/3 156/3/3
f 159/3/3 157/3/3 158/3/3
f 162/2/3 161/2/3 160/2/3
f 163/2/3 161/2/3 162/2/3
f 164/3/4 165/3/4 166/3/4
f 166/3/4 165/3/4 167/3/4
f 168/2/4 169/2/4 170/2/4
f 170/2/4 169/2/4 171/2/4
f 172/3/4 173/3/4 174/3/4
f 174/3/4 173/3/4 175/3/4
f 176/2/4 177/2/4 178/2/4
f 178/2/4 177/2/4 179/2/4
f 180/3/4 181/3/4 182/3/4
f 182/3/4 181/3/4 183/3/4
f 182/2/4 183/2/4 185/2/4
f 183/2/4 184/2/4 185/2/4
f 180/3/4 182/3/4 187/3/4
f 182/2/4 185/2/4 188/2/4
f 187/3/4 182/3/4 188/3/4
f 185/1/4 186/1/4 189/1/4
f 188/2/4 185/2/4 189/2/4
f 189/1/4 186/1/4 190/1/4
f 193/3/5 192/3/5 191/3/5
f 194/3/5 192/3/5 193/3/5
f 195/3/6 196/3/6 199/3/6
f 199/3/6 196/3/6 200/3/6
f 197/3/6 198/3/6 201/3/6
f 201/3/6 198/3/6 202/3/6
f 203/3/6 204/3/6 207/3/6
f 207/3/6 204/3/6 208/3/6
f 205/3/6 206/3/6 209/3/6
f 209/3/6 206/3/6 210/3/6
f 211/3/6 212/3/6 215/3/6
f 215/3/6 212/3/6 216/3/6
f 213/3/6 214/3/6 217/3/6
f 217/3/6 214/3/6 218/3/6
f 219/3/6 220/3/6 221/3/6
f 221/3/6 220/3/6 222/3/6
f 223/3/6 224/3/6 226/3/6
f 226/3/6 224/3/6 227/3/6
f 225/3/6 226/3/6 228/3/6
f 228/3/6 226/3/6 229/3/6
f 230/3/6 231/3/6 232/3/6
f 232/3/6 231/3/6 233/3/6
f 234/3/6 235/3/6 236/3/6
f 236/3/6 235/3/6 237/3/6
f 238/3/6 239/3/6 240/3/6
f 240/3/6 239/3/6 241/3/6
f 242/2/6 243/2/6 244/2/6
f 244/2/6 243/2/6 245/2/6
f 246/2/6 247/2/6 252/2/6
f 252/2/6 247/2/6 253/2/6
f 248/2/6 249/2/6 254/2/6
f 254/2/6 249/2/6 255/2/6
f 250/2/6 251/2/6 256/2/6
f 256/2/6 251/2/6 257/2/6
f 258/2/6 259/2/6 262/2/6
f 262/2/6 259/2/6 263/2/6
f 263/2/6 259/2/6 264/2/6
f 260/2/6 261/2/6 265/2/6
f 265/2/6 261/2/6 266/2/6
f 267/2/6 268/2/6 269/2/6
f 269/2/6 268/2/6 270/2/6
f 271/2/6 272/2/6 273/2/6
f 273/2/6 272/2/6 274/2/6
f 275/2/6 276/2/6 277/2/6
f 277/2/6 276/2/6 278/2/6
f 279/1/6 280/1/6 281/1/6
f 281/1/6 280/1/6 282/1/6
