# MagicaVoxel @ Ephtracy

# group
o 

# material
mtllib WinterGrass-18.mtl
usemtl palette

# normals
vn 0 0 1
vn 0 0 -1
vn 1 0 0
vn -1 0 0
vn 0 -1 0
vn 0 1 0

# texcoords
vt 0.564453 0.5
vt 0.595703 0.5
vt 0.626953 0.5

# verts
v 0.4 0 0.8
v -0.8 0 0.8
v 0.4 0.5 0.8
v -0.8 0.5 0.8
v 0.5 0.6 0.8
v 0.4 0.6 0.8
v -0.8 0.6 0.8
v 0.5 1.3 0.8
v 0.4 1.3 0.8
v -0.8 1.3 0.8
v 0.4 1.6 0.8
v -0.8 1.6 0.8
v 0.5 0.5 0.6
v 0.4 0.5 0.6
v 0.5 0.6 0.6
v 0.4 0.6 0.6
v 0.5 1.2 -0.2
v 0.4 1.2 -0.2
v 0.5 1.3 -0.2
v 0.4 1.3 -0.2
v 0.5 1.2 0.4
v 0.4 1.2 0.4
v 0.5 1.3 0.4
v 0.4 1.3 0.4
v 0.5 0.5 -0.2
v 0.4 0.5 -0.2
v 0.5 0.6 -0.2
v 0.4 0.6 -0.2
v 0.4 0 -0.4
v -0.8 0 -0.4
v 0.4 0.5 -0.4
v 0.1 0.5 -0.4
v -0.7 0.5 -0.4
v -0.8 0.5 -0.4
v 0.5 0.6 -0.4
v 0.4 0.6 -0.4
v 0.1 0.6 -0.4
v -0.7 0.6 -0.4
v -0.8 0.6 -0.4
v 0.1 0.7 -0.4
v -0.7 0.7 -0.4
v 0.5 1.3 -0.4
v 0.4 1.3 -0.4
v 0.2 1.3 -0.4
v -0.7 1.3 -0.4
v -0.8 1.3 -0.4
v 0.2 1.4 -0.4
v -0.7 1.4 -0.4
v 0.4 1.6 -0.4
v -0.8 1.6 -0.4
v 0.4 0.6 -0.5
v 0.1 0.6 -0.5
v -0.7 0.6 -0.5
v -0.8 0.6 -0.5
v 0.1 0.7 -0.5
v -0.7 0.7 -0.5
v 0.4 1.3 -0.5
v 0.2 1.3 -0.5
v -0.7 1.3 -0.5
v -0.8 1.3 -0.5
v 0.2 1.4 -0.5
v -0.7 1.4 -0.5
v 0.5 0.6 0.8
v 0.5 1.3 0.8
v 0.5 0.5 0.6
v 0.5 0.6 0.6
v 0.5 1.2 0.4
v 0.5 1.3 0.4
v 0.5 0.5 -0.2
v 0.5 0.6 -0.2
v 0.5 1.2 -0.2
v 0.5 1.3 -0.2
v 0.5 0.6 -0.4
v 0.5 1.3 -0.4
v 0.4 0 0.8
v 0.4 0.5 0.8
v 0.4 0.6 0.8
v 0.4 1.3 0.8
v 0.4 1.6 0.8
v 0.4 0.4 0.6
v 0.4 0.5 0.6
v 0.4 0.6 0.6
v 0.4 1.2 0.4
v 0.4 1.3 0.4
v 0.4 0.4 -0.2
v 0.4 0.5 -0.2
v 0.4 0.6 -0.2
v 0.4 1.2 -0.2
v 0.4 1.3 -0.2
v 0.4 0 -0.4
v 0.4 0.5 -0.4
v 0.4 0.6 -0.4
v 0.4 1.3 -0.4
v 0.4 1.6 -0.4
v 0.4 0.6 -0.5
v 0.4 1.3 -0.5
v 0.2 1.3 -0.4
v 0.2 1.4 -0.4
v 0.2 1.3 -0.5
v 0.2 1.4 -0.5
v -0.7 0.6 -0.4
v -0.7 0.7 -0.4
v -0.7 0.6 -0.5
v -0.7 0.7 -0.5
v 0.1 0.6 -0.4
v 0.1 0.7 -0.4
v 0.1 0.6 -0.5
v 0.1 0.7 -0.5
v -0.7 1.3 -0.4
v -0.7 1.4 -0.4
v -0.7 1.3 -0.5
v -0.7 1.4 -0.5
v -0.8 0 0.8
v -0.8 0.5 0.8
v -0.8 0.6 0.8
v -0.8 1.3 0.8
v -0.8 1.6 0.8
v -0.8 0 -0.4
v -0.8 0.5 -0.4
v -0.8 0.6 -0.4
v -0.8 1.3 -0.4
v -0.8 1.6 -0.4
v -0.8 0.6 -0.5
v -0.8 1.3 -0.5
v 0.4 0 0.8
v 0.4 0 -0.4
v -0.8 0 0.8
v -0.8 0 -0.4
v 0.5 0.5 0.6
v 0.5 0.5 -0.2
v 0.4 0.5 0.6
v 0.4 0.5 -0.2
v 0.5 0.6 0.8
v 0.5 0.6 0.6
v 0.5 0.6 -0.2
v 0.5 0.6 -0.4
v 0.4 0.6 0.8
v 0.4 0.6 0.6
v 0.4 0.6 -0.2
v 0.4 0.6 -0.4
v 0.4 0.6 -0.5
v 0.1 0.6 -0.4
v 0.1 0.6 -0.5
v -0.7 0.6 -0.4
v -0.7 0.6 -0.5
v -0.8 0.6 -0.4
v -0.8 0.6 -0.5
v 0.1 0.7 -0.4
v 0.1 0.7 -0.5
v -0.7 0.7 -0.4
v -0.7 0.7 -0.5
v 0.5 1.2 0.4
v 0.5 1.2 -0.2
v 0.4 1.2 0.4
v 0.4 1.2 -0.2
v 0.5 1.3 0.8
v 0.5 1.3 0.4
v 0.5 1.3 -0.2
v 0.5 1.3 -0.4
v 0.4 1.3 0.8
v 0.4 1.3 0.4
v 0.4 1.3 -0.2
v 0.4 1.3 -0.4
v 0.4 1.3 -0.5
v 0.2 1.3 -0.4
v 0.2 1.3 -0.5
v -0.7 1.3 -0.4
v -0.7 1.3 -0.5
v -0.8 1.3 -0.4
v -0.8 1.3 -0.5
v 0.2 1.4 -0.4
v 0.2 1.4 -0.5
v -0.7 1.4 -0.4
v -0.7 1.4 -0.5
v 0.4 1.6 0.8
v 0.4 1.6 -0.4
v -0.8 1.6 0.8
v -0.8 1.6 -0.4

# faces
f 3/2/1 2/2/1 1/2/1
f 4/2/1 2/2/1 3/2/1
f 6/1/1 4/1/1 3/1/1
f 7/1/1 4/1/1 6/1/1
f 8/3/1 6/3/1 5/3/1
f 8/3/1 7/3/1 6/3/1
f 9/3/1 7/3/1 8/3/1
f 10/3/1 7/3/1 9/3/1
f 11/2/1 10/2/1 9/2/1
f 12/2/1 10/2/1 11/2/1
f 15/3/1 14/3/1 13/3/1
f 16/3/1 14/3/1 15/3/1
f 19/3/1 18/3/1 17/3/1
f 20/3/1 18/3/1 19/3/1
f 21/3/2 22/3/2 23/3/2
f 23/3/2 22/3/2 24/3/2
f 25/3/2 26/3/2 27/3/2
f 27/3/2 26/3/2 28/3/2
f 29/2/2 30/2/2 31/2/2
f 31/2/2 30/2/2 32/2/2
f 32/2/2 30/2/2 33/2/2
f 33/2/2 30/2/2 34/2/2
f 31/1/2 32/1/2 36/1/2
f 32/2/2 33/2/2 37/2/2
f 36/1/2 32/1/2 37/1/2
f 33/1/2 34/1/2 38/1/2
f 37/2/2 33/2/2 38/2/2
f 38/1/2 34/1/2 39/1/2
f 37/1/2 38/1/2 40/1/2
f 40/1/2 38/1/2 41/1/2
f 35/3/2 36/3/2 42/3/2
f 42/3/2 36/3/2 43/3/2
f 43/2/2 44/2/2 47/2/2
f 45/2/2 46/2/2 48/2/2
f 43/2/2 47/2/2 49/2/2
f 47/2/2 48/2/2 49/2/2
f 48/2/2 46/2/2 50/2/2
f 49/2/2 48/2/2 50/2/2
f 51/3/2 52/3/2 55/3/2
f 53/3/2 54/3/2 56/3/2
f 51/3/2 55/3/2 57/3/2
f 55/3/2 56/3/2 57/3/2
f 57/3/2 56/3/2 58/3/2
f 56/3/2 54/3/2 59/3/2
f 58/3/2 56/3/2 59/3/2
f 59/3/2 54/3/2 60/3/2
f 58/3/2 59/3/2 61/3/2
f 61/3/2 59/3/2 62/3/2
f 66/3/3 64/3/3 63/3/3
f 67/3/3 64/3/3 66/3/3
f 67/3/3 66/3/3 65/3/3
f 68/3/3 64/3/3 67/3/3
f 69/3/3 67/3/3 65/3/3
f 70/3/3 67/3/3 69/3/3
f 71/3/3 67/3/3 70/3/3
f 73/3/3 72/3/3 71/3/3
f 73/3/3 71/3/3 70/3/3
f 74/3/3 72/3/3 73/3/3
f 80/2/3 76/2/3 75/2/3
f 81/1/3 77/1/3 76/1/3
f 81/2/3 76/2/3 80/2/3
f 82/1/3 77/1/3 81/1/3
f 84/2/3 79/2/3 78/2/3
f 85/1/3 81/1/3 80/1/3
f 85/2/3 80/2/3 75/2/3
f 86/1/3 81/1/3 85/1/3
f 88/2/3 84/2/3 83/2/3
f 89/2/3 79/2/3 84/2/3
f 89/2/3 84/2/3 88/2/3
f 90/2/3 85/2/3 75/2/3
f 90/2/3 86/2/3 85/2/3
f 91/1/3 87/1/3 86/1/3
f 91/2/3 86/2/3 90/2/3
f 92/1/3 87/1/3 91/1/3
f 93/2/3 79/2/3 89/2/3
f 94/2/3 79/2/3 93/2/3
f 95/3/3 93/3/3 92/3/3
f 96/3/3 93/3/3 95/3/3
f 99/3/3 98/3/3 97/3/3
f 100/3/3 98/3/3 99/3/3
f 103/3/3 102/3/3 101/3/3
f 104/3/3 102/3/3 103/3/3
f 105/3/4 106/3/4 107/3/4
f 107/3/4 106/3/4 108/3/4
f 109/3/4 110/3/4 111/3/4
f 111/3/4 110/3/4 112/3/4
f 113/2/4 114/2/4 118/2/4
f 114/1/4 115/1/4 119/1/4
f 118/2/4 114/2/4 119/2/4
f 115/3/4 116/3/4 120/3/4
f 119/1/4 115/1/4 120/1/4
f 116/2/4 117/2/4 121/2/4
f 120/3/4 116/3/4 121/3/4
f 121/2/4 117/2/4 122/2/4
f 120/3/4 121/3/4 123/3/4
f 123/3/4 121/3/4 124/3/4
f 127/2/5 126/2/5 125/2/5
f 128/2/5 126/2/5 127/2/5
f 131/3/5 130/3/5 129/3/5
f 132/3/5 130/3/5 131/3/5
f 137/3/5 134/3/5 133/3/5
f 138/3/5 134/3/5 137/3/5
f 139/3/5 136/3/5 135/3/5
f 140/3/5 136/3/5 139/3/5
f 142/3/5 141/3/5 140/3/5
f 143/3/5 141/3/5 142/3/5
f 146/3/5 145/3/5 144/3/5
f 147/3/5 145/3/5 146/3/5
f 150/3/5 149/3/5 148/3/5
f 151/3/5 149/3/5 150/3/5
f 152/3/6 153/3/6 154/3/6
f 154/3/6 153/3/6 155/3/6
f 156/3/6 157/3/6 160/3/6
f 160/3/6 157/3/6 161/3/6
f 158/3/6 159/3/6 162/3/6
f 162/3/6 159/3/6 163/3/6
f 163/3/6 164/3/6 165/3/6
f 165/3/6 164/3/6 166/3/6
f 167/3/6 168/3/6 169/3/6
f 169/3/6 168/3/6 170/3/6
f 171/3/6 172/3/6 173/3/6
f 173/3/6 172/3/6 174/3/6
f 175/2/6 176/2/6 177/2/6
f 177/2/6 176/2/6 178/2/6
